<?xml version="1.0" encoding="UTF-8"?>
<svg version="1.1" xmlns="http://www.w3.org/2000/svg" width="456" height="456">
<path d="M0 0 C2.12958755 -0.00543579 4.25917134 -0.01256654 6.38874817 -0.02124023 C12.1140186 -0.03930328 17.83899712 -0.03247711 23.56427193 -0.01972389 C29.59180541 -0.00950717 35.61931599 -0.01901341 41.64685059 -0.02526855 C51.7637983 -0.03251992 61.88062874 -0.02302345 71.99755859 -0.00390625 C83.64868429 0.01785752 95.29952987 0.01080437 106.95064878 -0.01121187 C117.00307449 -0.02943772 127.0554165 -0.03188923 137.10785341 -0.0214572 C143.09027469 -0.0152616 149.07256487 -0.01427715 155.05497742 -0.02760315 C160.68265912 -0.03926621 166.30998411 -0.03094733 171.93762779 -0.00802612 C173.98728026 -0.00279436 176.03696343 -0.00415615 178.08660316 -0.01307678 C194.71745761 -0.07871522 210.83905117 1.62678696 226.29101562 8.20507812 C227.52549438 8.71663452 227.52549438 8.71663452 228.78491211 9.23852539 C256.91710595 21.26010769 280.87891812 44.29197794 293.04101562 72.51757812 C302.04101562 95.69468715 302.04101562 95.69468715 302.04101562 107.51757812 C303.01039063 107.45570313 303.97976563 107.39382812 304.97851562 107.33007812 C313.1514065 107.37951093 320.24254202 110.87779959 326.04101562 116.51757812 C333.15278694 125.31662112 334.34007119 132.88665898 334.33154297 143.97363281 C334.33826019 145.22641022 334.34497742 146.47918762 334.35189819 147.76992798 C334.36761418 151.1958291 334.37425171 154.62148772 334.37552977 158.0474081 C334.37695481 160.19198829 334.38123114 162.33654333 334.3865242 164.48111725 C334.40501136 171.97505802 334.4131967 179.4689278 334.41162109 186.96289062 C334.41042091 193.92821904 334.43150213 200.89323698 334.46310842 207.85848689 C334.48933861 213.85448296 334.49998554 219.85037807 334.49871027 225.84643102 C334.4982025 229.42046491 334.50378226 232.99422285 334.52506638 236.56819916 C334.54819274 240.5603271 334.53888692 244.55176841 334.52685547 248.54394531 C334.53809448 249.71416229 334.5493335 250.88437927 334.56091309 252.09005737 C334.4831798 262.27274436 332.02264454 270.29662446 324.96289062 277.76367188 C318.51429266 283.64867286 311.8593335 286.51757812 303.04101562 286.51757812 C303.04101562 321.82757813 303.04101562 357.13757813 303.04101562 393.51757812 C305.68101562 393.84757812 308.32101562 394.17757813 311.04101562 394.51757812 C319.67370291 397.05821078 326.50903612 402.41870695 330.97851562 410.20507812 C333.39642698 414.81960047 334.16457957 418.66297737 334.18818665 423.86660767 C334.1989196 425.49393829 334.1989196 425.49393829 334.20986938 427.15414429 C334.21255829 428.33964874 334.21524719 429.5251532 334.21801758 430.74658203 C334.22458878 431.99906738 334.23115997 433.25155273 334.2379303 434.54199219 C334.25766284 438.69271078 334.26933083 442.84339073 334.27929688 446.99414062 C334.28334645 448.4265482 334.28746343 449.85895558 334.29164696 451.29136276 C334.31069179 458.02429875 334.32492255 464.75722384 334.33325893 471.49018157 C334.34301964 479.24418 334.36931135 486.99789208 334.40975982 494.75178969 C334.43999936 500.7562256 334.45473532 506.76057981 334.45803994 512.76509035 C334.46038211 516.34587921 334.46923242 519.92636194 334.49450111 523.50706863 C334.522286 527.50896219 334.5179269 531.51022291 334.51098633 535.51220703 C334.53020142 537.27224564 334.53020142 537.27224564 334.54980469 539.06784058 C334.490115 548.53906598 332.47267001 556.82393488 325.88476562 563.91601562 C318.74107254 570.12134224 312.39482127 572.697459 303.04101562 572.51757812 C303.05672607 573.10958008 303.07243652 573.70158203 303.08862305 574.31152344 C303.93877925 611.54621266 295.15225684 643.29041792 269.40429688 671.08398438 C261.6679482 679.0505054 253.55208422 685.60547089 244.05419922 691.30517578 C242.65272476 692.14918769 241.25764127 693.00386511 239.86767578 693.86669922 C205.68377674 715.08403883 164.63330878 721.02580765 125.04101562 723.51757812 C123.81439209 723.60217285 123.81439209 723.60217285 122.56298828 723.68847656 C63.49759611 727.6836942 -7.73950125 726.82111237 -59.95898438 696.51757812 C-61.256891 695.78793015 -62.55506473 695.0587571 -63.85351562 694.33007812 C-92.16547784 678.16939008 -113.22582407 653.85298253 -122.95898438 622.51757812 C-127.48614784 605.84132141 -128.11043394 589.69868939 -127.95898438 572.51757812 C-129.00957031 572.55238281 -130.06015625 572.5871875 -131.14257812 572.62304688 C-138.86226766 572.40970847 -145.58296459 569.01578018 -150.95898438 563.51757812 C-158.22657931 554.24091247 -159.258485 546.57719551 -159.24951172 535.03979492 C-159.25622894 533.79662506 -159.26294617 532.5534552 -159.26986694 531.27261353 C-159.2855655 527.87776164 -159.29221936 524.48315449 -159.29349852 521.0882833 C-159.29492467 518.96262625 -159.29920304 516.8369945 -159.30449295 514.71134377 C-159.32297047 507.28223682 -159.33116646 499.85320143 -159.32958984 492.42407227 C-159.32838918 485.52063798 -159.34948244 478.6175167 -159.38107717 471.71416157 C-159.40730753 465.76910021 -159.41795432 459.82414066 -159.41667902 453.87902194 C-159.41617135 450.33630108 -159.42174548 446.79385865 -159.44303513 443.25119591 C-159.46616196 439.29519012 -159.45685532 435.33960709 -159.44482422 431.38354492 C-159.45606323 430.22424973 -159.46730225 429.06495453 -159.47888184 427.87052917 C-159.40256039 417.96248422 -157.05937274 409.67508665 -150.14257812 402.34179688 C-143.33820017 396.65728076 -136.6828223 394.60805787 -127.95898438 393.51757812 C-127.95898438 358.20757812 -127.95898438 322.89757812 -127.95898438 286.51757812 C-130.92898438 286.18757813 -133.89898437 285.85757812 -136.95898438 285.51757812 C-144.65431742 283.09996999 -150.59911912 278.26680185 -154.95898438 271.51757812 C-158.87098398 263.90488587 -159.5359278 257.16442303 -159.4765625 248.69921875 C-159.48357178 247.45561081 -159.49058105 246.21200287 -159.49780273 244.93070984 C-159.51230473 241.54815801 -159.50902885 238.16659603 -159.49628639 234.78410149 C-159.48608418 231.22670135 -159.49557194 227.66934046 -159.50183105 224.11193848 C-159.50908664 218.14046736 -159.49957502 212.16919481 -159.48046875 206.19775391 C-159.45870384 199.31637929 -159.46575671 192.43547891 -159.48777437 185.55411577 C-159.50598834 179.62170652 -159.50845758 173.68943915 -159.4980197 167.75701094 C-159.49181751 164.22442839 -159.49085784 160.69206796 -159.50416565 157.15950012 C-159.51797921 153.2181284 -159.49877686 149.27727814 -159.4765625 145.3359375 C-159.48465942 144.18135544 -159.49275635 143.02677338 -159.50109863 141.83720398 C-159.39576601 131.70745049 -156.89613251 123.703233 -149.88476562 116.27148438 C-143.1287655 110.11845384 -136.16197149 107.14945864 -126.95898438 107.51757812 C-126.87261719 106.77636719 -126.78625 106.03515625 -126.69726562 105.27148438 C-122.41272453 73.15708001 -105.3057475 44.14816036 -79.65234375 24.23876953 C-71.60663063 18.21283953 -63.12893404 13.59364602 -53.95898438 9.51757812 C-52.89292969 9.03546875 -51.826875 8.55335937 -50.72851562 8.05664062 C-34.29423063 1.1829853 -17.60116642 -0.07660546 0 0 Z M-48.08007812 44.30664062 C-50.65778063 47.00935872 -51.78886594 48.58061814 -52.46679688 52.31445312 C-51.73428131 56.93493593 -49.27913165 59.00485013 -46.02148438 62.20507812 C-44.81447249 63.44344945 -43.61005822 64.6843577 -42.40820312 65.92773438 C-41.5194751 66.84063232 -41.5194751 66.84063232 -40.61279297 67.77197266 C-38.38376384 70.12472705 -36.35304438 72.60863943 -34.33398438 75.14257812 C-30.75335014 79.61509195 -26.96106387 83.84395716 -23.04882812 88.02441406 C-19.95741669 91.35179457 -17.12479926 94.80438756 -14.33398438 98.39257812 C-9.3053947 104.62875027 -4.00863951 109.23676618 4.04101562 110.51757812 C6.34349755 110.61382206 8.6484482 110.65668544 10.95292664 110.66474915 C11.6361799 110.66842583 12.31943316 110.67210252 13.02339107 110.67589062 C15.30621049 110.68687795 17.58898432 110.69076284 19.87182617 110.69458008 C21.51149132 110.70084847 23.15115506 110.7074956 24.79081726 110.7144928 C30.16977965 110.73549083 35.54874219 110.74589117 40.92773438 110.75585938 C42.78268765 110.75990851 44.63764079 110.76402548 46.49259377 110.76820946 C55.20856536 110.78725173 63.92452855 110.80148482 72.64051694 110.80982143 C82.68728629 110.81959073 92.73383514 110.84590631 102.78052682 110.88632232 C110.55566837 110.91652246 118.33074684 110.93129399 126.10594589 110.93460244 C130.74527235 110.93694843 135.384363 110.94585019 140.02362633 110.97106361 C144.39118646 110.99441776 148.75835671 110.99854822 153.12596321 110.98830223 C154.72304968 110.98780854 156.32015582 110.99407942 157.91718292 111.00785828 C168.1995302 111.09156203 177.70901063 110.88293905 185.54492188 103.45117188 C186.58308621 102.30237538 187.60244961 101.13634246 188.60351562 99.95507812 C189.42891846 99.02526123 189.42891846 99.02526123 190.27099609 98.07666016 C194.24207926 93.56759667 198.04406088 88.91853625 201.79882812 84.22851562 C204.71628044 80.70114297 207.82213177 77.36333126 210.94018555 74.01513672 C214.8458701 69.79504353 218.48645466 65.39171826 222.06835938 60.89257812 C224.04101562 58.51757813 224.04101562 58.51757813 226.28320312 56.35351562 C228.2822739 54.65308845 228.2822739 54.65308845 228.22851562 52.14257812 C224.02739907 42.85589943 211.09890576 38.28614276 202.09667969 34.75488281 C143.88460417 13.74804709 2.99058994 1.2304602 -48.08007812 44.30664062 Z M-47.12255859 469.56640625 C-51.17925678 476.08559898 -53.20969402 483.49373676 -55.52148438 490.76757812 C-56.10801688 492.55532016 -56.69676678 494.34233604 -57.28759766 496.12866211 C-58.53751297 499.91796153 -59.7748753 503.71104331 -61.00341797 507.50732422 C-63.03072993 513.75898376 -65.10949313 519.99291982 -67.19726562 526.22460938 C-67.54465286 527.26187164 -67.8920401 528.29913391 -68.24995422 529.36782837 C-68.93928894 531.42610053 -69.62866522 533.48435877 -70.31808472 535.54260254 C-71.94198065 540.39794845 -73.55653116 545.25638929 -75.16992188 550.11523438 C-75.45358109 550.96946487 -75.7372403 551.82369537 -76.02949524 552.70381165 C-76.67283898 554.64167383 -77.31594249 556.57961576 -77.95898438 558.51757812 C-51.39585984 585.86685599 15.04791734 583.10344695 50.65797234 583.67673779 C60.74590096 583.80339499 70.83406742 583.8028382 80.92260742 583.77832031 C85.65719338 583.76691854 90.39155462 583.77371723 95.12613297 583.78519821 C117.17950555 583.83057987 139.05862129 583.4243789 161.04101562 581.51757812 C161.91392242 581.44196655 162.78682922 581.36635498 163.68618774 581.28845215 C168.35812486 580.86801331 173.01136127 580.35261152 177.66601562 579.76757812 C178.32817078 579.68587372 178.99032593 579.60416931 179.67254639 579.51998901 C218.59954702 576.15715239 218.59954702 576.15715239 251.38085938 558.94433594 C252.46235634 554.9687147 250.4956673 551.77001786 248.89648438 548.16210938 C248.36198921 546.90479759 248.36198921 546.90479759 247.81669617 545.62208557 C246.63526296 542.85155679 245.43231182 540.09095532 244.22851562 537.33007812 C242.98047471 534.42820828 241.73703705 531.52439439 240.49389648 528.62042236 C239.63622795 526.61795244 238.77666233 524.61629407 237.9152832 522.61541748 C234.96048039 515.73501517 232.11638904 508.81695892 229.33398438 501.86523438 C228.58336884 500.00273558 227.83247826 498.14034761 227.08129883 496.27807617 C226.00594951 493.61145539 224.93598699 490.94341329 223.88461304 488.26724243 C219.18218482 476.31656163 214.74029519 465.40596164 202.47650146 459.54494095 C194.29095166 457.09709807 185.4178068 457.82783839 176.95117188 457.87060547 C174.69993382 457.8638242 172.44870131 457.85491822 170.19747925 457.84405518 C164.10241393 457.8213162 158.00777313 457.83007618 151.91270065 457.8459506 C145.52455274 457.85863743 139.1364404 457.84686175 132.74829102 457.83901978 C121.33545373 457.82934973 109.9228509 457.84485703 98.51005328 457.87031646 C88.17750529 457.8926531 77.84523824 457.88877228 67.51269531 457.86572266 C55.49266545 457.8389209 43.47284754 457.82902836 31.45277691 457.84378397 C25.09769131 457.85156639 18.74279891 457.85265312 12.38772583 457.83610153 C6.41211882 457.82162448 0.4370407 457.8317384 -5.53850937 457.86057281 C-7.72738646 457.86716623 -9.91630829 457.86531596 -12.10516739 457.85425949 C-26.13901818 457.78992372 -37.55749368 457.89947165 -47.12255859 469.56640625 Z M-80.95898438 646.51757812 C-77.05275248 660.40640265 -59.55796091 669.95464683 -47.95898438 676.51757812 C-35.25539514 683.5751277 -18.57599467 691.38699853 -3.62304688 687.98632812 C0.92444526 686.59639697 4.76642182 685.0991651 8.04101562 681.51757812 C9.55443469 678.77498348 9.55443469 678.77498348 9.04101562 675.51757812 C-1.804289 657.58813513 -28.21654196 650.68167609 -47.14404297 645.97412109 C-64.84755563 641.57248084 -64.84755563 641.57248084 -80.95898438 646.51757812 Z M168.91601562 671.51757812 C166.65840006 674.26871895 166.07105576 675.12705631 165.79101562 678.76757812 C167.66492296 682.89017426 169.97751858 684.60177848 174.09179688 686.42773438 C188.16558818 691.6537536 202.82928311 686.23898599 215.93554688 680.46289062 C228.83396988 674.50608817 249.66955599 662.7176506 255.54101562 649.01757812 C255.70601562 648.19257812 255.87101562 647.36757813 256.04101562 646.51757812 C252.01333152 642.72148586 248.24812607 643.04512932 242.93505859 643.10302734 C218.29387925 643.8474246 186.45728308 653.392746 168.91601562 671.51757812 Z " fill="#613C8C" transform="translate(401.958984375,40.482421875)"/>
<path d="M0 0 C0 248.49 0 496.98 0 753 C-4.11286332 750.94356834 -6.96690668 748.43517539 -10.25 745.3125 C-11.42252152 744.21414351 -12.59569519 743.11648276 -13.76953125 742.01953125 C-14.3310791 741.49311035 -14.89262695 740.96668945 -15.47119141 740.42431641 C-19.59207376 736.58509129 -23.88719409 732.94599089 -28.17578125 729.296875 C-35.01819056 723.46766312 -41.74117661 717.54467469 -48.34375 711.4453125 C-52.86298847 707.28495473 -57.50178609 703.27314465 -62.1796875 699.29296875 C-69.02119707 693.4655094 -75.74252108 687.54343269 -82.34375 681.4453125 C-86.86298847 677.28495473 -91.50178609 673.27314465 -96.1796875 669.29296875 C-103.02119707 663.4655094 -109.74252108 657.54343269 -116.34375 651.4453125 C-120.95466163 647.2005615 -125.6929296 643.11333011 -130.4609375 639.046875 C-131.39510498 638.24914673 -131.39510498 638.24914673 -132.34814453 637.43530273 C-133.58983889 636.37579793 -134.83294213 635.31794143 -136.07763672 634.26196289 C-136.94412842 633.52320923 -136.94412842 633.52320923 -137.828125 632.76953125 C-138.3427832 632.33229736 -138.85744141 631.89506348 -139.38769531 631.44458008 C-139.91975586 630.96786865 -140.45181641 630.49115723 -141 630 C-141.68223816 629.48060455 -142.36447631 628.96120909 -143.06738836 628.42607439 C-145.77790211 625.02347251 -145.56701779 621.90764837 -145.534091 617.73822975 C-145.54320032 616.89362188 -145.55230964 616.04901401 -145.56169501 615.17881197 C-145.587459 612.32941534 -145.58460132 609.48075798 -145.58195496 606.6312561 C-145.59443328 604.57537062 -145.60862283 602.51949493 -145.62438279 600.46363199 C-145.66255688 594.79888909 -145.67545825 589.13432399 -145.68414819 583.46946931 C-145.69769695 577.365533 -145.73397908 571.26172409 -145.766922 565.15786743 C-145.83774333 551.10550067 -145.874101 537.0531741 -145.90399598 523.00067692 C-145.91895286 516.05486849 -145.93822151 509.1090739 -145.95774495 502.16327705 C-146.02425845 478.38258908 -146.07996071 454.6019004 -146.10570812 430.82113075 C-146.10735402 429.32805674 -146.10900347 427.83498272 -146.11065646 426.34190872 C-146.11147474 425.60148268 -146.11229302 424.86105665 -146.1131361 424.09819346 C-146.1172919 420.34687502 -146.12149415 416.59555663 -146.12573242 412.84423828 C-146.12656226 412.09977911 -146.1273921 411.35531993 -146.12824709 410.58830139 C-146.15554444 386.46165128 -146.24172654 362.33570507 -146.36259062 338.20935458 C-146.49016656 312.69655322 -146.56294154 287.1841616 -146.57400876 261.67103517 C-146.5754328 258.86853354 -146.57708691 256.06603213 -146.57891273 253.26353073 C-146.57933808 252.57348541 -146.57976342 251.8834401 -146.58020166 251.17248432 C-146.5883395 240.0803401 -146.6462883 228.98899457 -146.72232533 217.89713181 C-146.79757389 206.73989066 -146.81583226 195.58360329 -146.78057345 184.42607088 C-146.76303323 178.38397918 -146.76962909 172.34449122 -146.84191513 166.30274963 C-146.90758586 160.76545363 -146.90335496 155.23266892 -146.84463254 149.69533543 C-146.83555052 147.69785828 -146.85158847 145.70006674 -146.89596286 143.70306189 C-147.22144601 128.07673889 -147.22144601 128.07673889 -141.73388922 121.77731395 C-138.0959627 118.1430759 -134.12885697 115.04941785 -130 112 C-128.14049882 110.48569375 -126.28495747 108.96647644 -124.4375 107.4375 C-123.57382813 106.74785156 -122.71015625 106.05820313 -121.8203125 105.34765625 C-117.10592358 101.4233519 -112.68094284 97.18973138 -108.20703125 92.99609375 C-103.5360668 88.61883286 -98.70252459 84.4485711 -93.828125 80.30078125 C-86.98481521 74.46981787 -80.26016783 68.54591666 -73.65625 62.4453125 C-69.13701153 58.28495473 -64.49821391 54.27314465 -59.8203125 50.29296875 C-52.97880293 44.4655094 -46.25747892 38.54343269 -39.65625 32.4453125 C-35.13701153 28.28495473 -30.49821391 24.27314465 -25.8203125 20.29296875 C-24.63012786 19.27874026 -23.44002619 18.2644144 -22.25 17.25 C-21.65227783 16.74186768 -21.05455566 16.23373535 -20.4387207 15.71020508 C-17.41391024 13.12418512 -14.43797012 10.50393502 -11.53515625 7.78125 C-10.99149414 7.27174805 -10.44783203 6.76224609 -9.88769531 6.23730469 C-8.3937224 4.82669046 -6.90945855 3.40581414 -5.42578125 1.984375 C-3 0 -3 0 0 0 Z " fill="#FECE1C" transform="translate(169,17)"/>
<path d="M0 0 C3.86553246 1.93276623 6.49039552 4.13397976 9.5625 7.0625 C13.39465791 10.65112328 17.26920432 14.09644611 21.375 17.375 C27.10522487 21.98571639 32.43085078 26.97756638 37.79296875 32.00390625 C42.4639332 36.38116714 47.29747541 40.5514289 52.171875 44.69921875 C59.01518479 50.53018213 65.73983217 56.45408334 72.34375 62.5546875 C76.86298847 66.71504527 81.50178609 70.72685535 86.1796875 74.70703125 C93.02119707 80.5344906 99.74252108 86.45656731 106.34375 92.5546875 C110.85086728 96.70388665 115.47519731 100.70700804 120.14453125 104.671875 C120.7267041 105.1676001 121.30887695 105.6633252 121.90869141 106.17407227 C123.03250982 107.13022795 124.15824093 108.08414415 125.28662109 109.03491211 C126.42808773 110.00591302 127.55283742 110.99680749 128.66276532 112.00370812 C131.0763894 114.12600723 131.0763894 114.12600723 134.18248147 116.25558257 C139.31214297 120.09468085 143.9035578 123.85194772 145.20802939 130.37789583 C145.82618053 135.70206444 145.7113291 141.02123054 145.61714172 146.37115479 C145.62855163 148.43824786 145.64564592 150.50531599 145.66790551 152.5723207 C145.71236538 158.2316002 145.67607058 163.88788296 145.62612545 169.54700994 C145.58635888 175.65755711 145.62169454 181.7677378 145.6474762 187.8782959 C145.68376251 199.14870302 145.66148437 210.41787914 145.60948004 221.68812138 C145.56178265 232.09816532 145.5404514 242.50786904 145.54491234 252.91802216 C145.54517972 253.60920967 145.5454471 254.30039719 145.54572259 255.01252978 C145.54686119 257.81841782 145.54814446 260.62430574 145.54963094 263.43019361 C145.5633285 289.73383264 145.50535211 316.03686864 145.41219193 342.34032367 C145.32980307 365.70455234 145.2999299 389.06825208 145.31762695 412.43261719 C145.31874708 413.93344737 145.31986609 415.43427755 145.32098398 416.93510774 C145.32153767 417.67709439 145.32209136 418.41908105 145.32266182 419.18355215 C145.32542409 422.91869498 145.3280766 426.65383787 145.33060932 430.38898087 C145.33111399 431.1258856 145.33161866 431.86279034 145.33213862 432.62202552 C145.34483914 452.15433444 145.31933543 471.68658775 145.28142232 491.21885848 C145.27736871 493.3204587 145.27331552 495.42205892 145.26926935 497.52365916 C145.26657208 498.91776006 145.26384303 500.3118609 145.26108201 501.70596167 C145.24210393 511.42234802 145.23734361 521.13864912 145.24217551 530.8550511 C145.24831014 543.37393611 145.22723046 555.89227531 145.16168258 568.41104296 C145.13069649 574.44761412 145.11240605 580.48350419 145.12860107 586.52014923 C145.14300655 592.04477477 145.12053406 597.56796886 145.0684258 603.09235618 C145.05600407 605.09208857 145.05707078 607.09195903 145.0728896 609.09166744 C145.19328246 625.90844059 145.19328246 625.90844059 140.10286236 631.09814072 C137.97631711 632.72439361 137.97631711 632.72439361 136 634 C135.11054687 634.75667969 134.22109375 635.51335938 133.3046875 636.29296875 C132.50289062 636.91816406 131.70109375 637.54335938 130.875 638.1875 C126.34015338 641.82673018 122.0523151 645.65208177 117.8125 649.625 C116.90636963 650.47408936 116.90636963 650.47408936 115.98193359 651.34033203 C115.39621582 651.88931152 114.81049805 652.43829102 114.20703125 653.00390625 C109.5360668 657.38116714 104.70252459 661.5514289 99.828125 665.69921875 C92.98481521 671.53018213 86.26016783 677.45408334 79.65625 683.5546875 C75.13701153 687.71504527 70.49821391 691.72685535 65.8203125 695.70703125 C58.97880293 701.5344906 52.25747892 707.45656731 45.65625 713.5546875 C41.13701153 717.71504527 36.49821391 721.72685535 31.8203125 725.70703125 C24.9960274 731.51981914 18.29206689 737.42524945 11.70703125 743.5078125 C1.39655172 753 1.39655172 753 0 753 C0 504.51 0 256.02 0 0 Z " fill="#FECE1C" transform="translate(811,17)"/>
</svg>
