<?xml version="1.0" encoding="UTF-8"?>
<svg version="1.1" xmlns="http://www.w3.org/2000/svg" width="1054" height="1054">
<path d="M0 0 C347.82 0 695.64 0 1054 0 C1054 347.82 1054 695.64 1054 1054 C706.18 1054 358.36 1054 0 1054 C0 706.18 0 358.36 0 0 Z " fill="#FEFEFE" transform="translate(0,0)"/>
<path d="M0 0 C347.82 0 695.64 0 1054 0 C1054 347.82 1054 695.64 1054 1054 C706.18 1054 358.36 1054 0 1054 C0 706.18 0 358.36 0 0 Z M466 108 C464.15825195 108.24145752 464.15825195 108.24145752 462.27929688 108.48779297 C388.71005076 118.59143218 316.56814547 148.23853815 258 194 C256.89876736 194.84548189 255.79718779 195.69051206 254.6953125 196.53515625 C234.84612947 211.83957621 215.18648935 228.7968699 198.86328125 247.859375 C196.71113223 250.33186486 194.48019281 252.72271357 192.25 255.125 C186.99242015 260.89880748 182.16428972 266.94635801 177.42089844 273.14648438 C176.01128083 274.98528453 174.58807582 276.81296206 173.1640625 278.640625 C159.48305814 296.36447935 147.78128214 315.40297633 137 335 C136.57944336 335.75071777 136.15888672 336.50143555 135.72558594 337.27490234 C110.64564771 382.1229154 95.69506711 432.34246735 88.29425049 482.99176025 C88.02120352 484.85528742 87.73924689 486.7175032 87.45654297 488.57958984 C81.75333075 527.6638674 83.2255352 569.00554749 89 608 C89.15628876 609.08199677 89.15628876 609.08199677 89.31573486 610.18585205 C92.47208574 631.98790745 97.49894664 652.96250039 104 674 C104.33257812 675.08990234 104.66515625 676.17980469 105.0078125 677.30273438 C121.44417771 730.6541068 149.42826307 782.53703976 186.14013672 824.70117188 C188.0057247 826.84405722 189.84937036 829.00254656 191.6730957 831.18115234 C198.38986519 839.17767541 205.42582997 846.74122592 212.83666992 854.09741211 C214.57254731 855.82248477 216.2973509 857.55811991 218.02148438 859.29492188 C223.92007252 865.20063962 229.91613903 870.75724473 236.4609375 875.95581055 C238.92448159 877.93920042 241.2766767 880.00290711 243.62109375 882.125 C299.60408745 932.36201141 375.45931812 964.13643511 449.0625 976.75 C450.14692383 976.93675293 451.23134766 977.12350586 452.34863281 977.31591797 C474.91154057 980.95014609 497.3473104 982.52943675 520.1875 982.375 C521.42591644 982.37034729 522.66433289 982.36569458 523.9402771 982.36090088 C543.45365588 982.27530832 562.6538793 981.70030503 582 979 C583.05882385 978.85434601 583.05882385 978.85434601 584.13903809 978.70574951 C645.11977649 970.26326712 705.02716823 949.24666422 757 916 C758.08410156 915.30777344 759.16820312 914.61554687 760.28515625 913.90234375 C763.22204689 911.97735621 766.11578012 910.00303332 769 908 C769.63470215 907.56220215 770.2694043 907.1244043 770.92333984 906.67333984 C783.46628664 898.0073572 795.52427021 888.89327005 807.125 879 C807.63828857 878.56236328 808.15157715 878.12472656 808.68041992 877.67382812 C818.35562482 869.3238912 827.63080378 860.5559516 836.66479492 851.52050781 C838.19237416 849.99513287 839.72783582 848.47799328 841.26367188 846.9609375 C846.90027705 841.35547972 852.13319774 835.63065169 857.07421875 829.39331055 C858.90847687 827.11374256 860.82311992 824.95686127 862.8125 822.8125 C868.68978492 816.25127068 873.8208378 809.1144527 879 802 C879.55494141 801.24283691 880.10988281 800.48567383 880.68164062 799.70556641 C895.5397877 779.34141455 907.6819629 757.49065154 919 735 C919.40025391 734.21415527 919.80050781 733.42831055 920.21289062 732.61865234 C941.26038342 691.0704713 953.17716401 644.99210628 959.1875 599 C959.43814209 597.08658813 959.43814209 597.08658813 959.69384766 595.13452148 C961.84572696 578.07129315 962.24002192 561.24285458 962.25 544.0625 C962.25100708 542.86058014 962.25201416 541.65866028 962.25305176 540.4203186 C962.24247831 521.74558141 961.61506124 503.50637255 959 485 C958.85546387 483.92766113 958.71092773 482.85532227 958.56201172 481.75048828 C948.9841981 411.9056348 921.84052242 343.80041733 880 287 C879.25387451 285.977854 879.25387451 285.977854 878.49267578 284.93505859 C871.69026574 275.62845263 864.5626326 266.69823558 857 258 C856.39929688 257.29875 855.79859375 256.5975 855.1796875 255.875 C843.40556033 242.22383806 830.98140919 228.46191286 817.171875 216.8359375 C815.38428632 215.32484635 813.63443171 213.78730053 811.890625 212.2265625 C741.91024516 149.94122097 651.72359978 114.31020587 559 106 C558.05495605 105.9057373 557.10991211 105.81147461 556.13623047 105.71435547 C545.35991996 104.7362815 534.56198914 104.7563426 523.75 104.75 C522.71287872 104.74932526 521.67575745 104.74865051 520.60720825 104.74795532 C502.23906558 104.7668328 484.21596352 105.60778883 466 108 Z " fill="#64359F" transform="translate(0,0)"/>
<path d="M0 0 C1.60801781 -0.00735614 3.21603037 -0.01594681 4.82403564 -0.02566528 C9.15915358 -0.0477331 13.49408061 -0.05081923 17.829247 -0.04891777 C21.46668983 -0.04879733 25.10409329 -0.05739175 28.74152505 -0.06569529 C37.33584858 -0.08487826 45.93007501 -0.08783265 54.52441406 -0.08105469 C63.34495655 -0.07442528 72.16507966 -0.09724567 80.98553717 -0.13436842 C88.59706204 -0.16522254 96.20845313 -0.17640832 103.82003915 -0.1725316 C108.34888071 -0.17047941 112.87739606 -0.17570281 117.40617752 -0.20042419 C121.67300819 -0.2229491 125.93916549 -0.22060391 130.20600128 -0.20049667 C131.75618658 -0.19713098 133.30641955 -0.20197932 134.85654068 -0.21648026 C156.73207481 -0.40670826 177.26079779 6.81736605 193.68505859 21.41992188 C194.41724609 21.99871094 195.14943359 22.5775 195.90380859 23.17382812 C211.39841099 35.80411142 221.84655944 55.72783401 224.68505859 75.41992188 C224.68505859 76.73992187 224.68505859 78.05992187 224.68505859 79.41992188 C225.88130859 79.52304687 227.07755859 79.62617188 228.31005859 79.73242188 C235.05493549 80.58891418 240.7884855 83.70908376 244.99597168 89.09934998 C250.49097094 98.14237794 249.36831731 108.43833431 249.27880859 118.64257812 C249.27709506 120.7142276 249.27716564 122.78587925 249.27893066 124.85752869 C249.2772827 129.18558684 249.2586796 133.51312374 249.22705078 137.84106445 C249.18735052 143.37110698 249.18301195 148.90046883 249.19051361 154.43062687 C249.19359206 158.70391505 249.18143207 162.97705203 249.16438293 167.25030327 C249.15738407 169.2887216 249.1542246 171.32715706 249.15507507 173.36558723 C249.15326479 176.22002917 249.13177904 179.07367536 249.10498047 181.92797852 C249.10791107 182.75888 249.11084167 183.58978149 249.11386108 184.44586182 C248.98982017 193.06714525 246.92751572 200.31933878 240.68505859 206.41992188 C235.57071449 210.32132863 232.55931398 210.56063995 225.68505859 211.41992188 C225.68505859 237.81992187 225.68505859 264.21992187 225.68505859 291.41992188 C227.99505859 291.74992187 230.30505859 292.07992188 232.68505859 292.41992188 C239.74659265 295.2445355 243.78994864 300.02081266 247.68505859 306.41992188 C249.00809767 310.3890391 248.84917004 314.19929479 248.86206055 318.33837891 C248.86863174 319.25094955 248.87520294 320.1635202 248.88197327 321.10374451 C248.90170675 324.12840864 248.91337067 327.15302304 248.92333984 330.17773438 C248.92741537 331.21184322 248.9314909 332.24595207 248.93568993 333.31139755 C248.95655357 338.78767446 248.97085251 344.26392631 248.98022461 349.74023438 C248.99127334 355.38593149 249.02565489 361.03123277 249.06539631 366.67679024 C249.09159643 371.0263846 249.09991961 375.37588528 249.10350609 379.72555161 C249.10836536 381.80587301 249.11996045 383.88619041 249.13854408 385.96643448 C249.16300136 388.88630343 249.16195806 391.80515674 249.1550293 394.72509766 C249.17424438 396.00197197 249.17424438 396.00197197 249.19384766 397.30464172 C249.1250671 405.30198959 246.41595781 412.68902265 240.68505859 418.41992188 C235.50968665 422.00287168 231.90160415 422.775052 225.68505859 423.41992188 C225.73146484 424.49886719 225.77787109 425.5778125 225.82568359 426.68945312 C226.59577047 452.85765418 218.51189525 476.91630355 200.68505859 496.41992188 C179.21373448 518.50991126 149.40834571 528.12794046 119.68505859 532.41992188 C118.15268555 532.64639404 118.15268555 532.64639404 116.58935547 532.87744141 C85.84457982 537.2246664 53.48681806 537.16748855 22.68505859 533.41992188 C21.30882324 533.26716797 21.30882324 533.26716797 19.90478516 533.11132812 C-14.8564379 529.2343449 -48.65617515 518.28824789 -72.18994141 491.04492188 C-85.41112818 473.85002034 -91.56154123 455.50208533 -91.37744141 433.91992188 C-91.37292969 432.90671875 -91.36841797 431.89351562 -91.36376953 430.84960938 C-91.35208733 428.37298361 -91.33570722 425.89648531 -91.31494141 423.41992188 C-92.36294922 423.47535156 -93.41095703 423.53078125 -94.49072266 423.58789062 C-101.09198663 423.29794747 -106.04910612 419.56956048 -110.75244141 415.10742188 C-114.66750043 408.37352036 -115.76229429 401.70964945 -115.73486328 394.01977539 C-115.74333282 393.12744202 -115.75180237 392.23510864 -115.76052856 391.31573486 C-115.78374968 388.39328392 -115.78492438 385.47136397 -115.78369141 382.54882812 C-115.79080126 380.50056248 -115.79850146 378.4522988 -115.8067627 376.40403748 C-115.82017282 372.12143408 -115.82179156 367.83901494 -115.81591797 363.55639648 C-115.81002104 358.08791429 -115.84062993 352.62031963 -115.88103485 347.15200901 C-115.90697166 342.92501624 -115.9097839 338.69823561 -115.90614319 334.47117424 C-115.9078284 332.45587875 -115.91741276 330.44057283 -115.93528748 328.42535591 C-116.10147454 307.3771409 -116.10147454 307.3771409 -108.28759766 297.98242188 C-102.6447793 293.36661954 -98.79489682 291.41992188 -91.31494141 291.41992188 C-91.31494141 265.01992188 -91.31494141 238.61992188 -91.31494141 211.41992188 C-94.28494141 211.08992187 -97.25494141 210.75992188 -100.31494141 210.41992188 C-106.72720867 207.66255442 -110.46916574 203.68062835 -113.31494141 197.41992188 C-113.67150314 196.70886292 -114.02806488 195.99780396 -114.39543152 195.26519775 C-115.67700208 191.2995832 -115.60185476 187.60092206 -115.58959961 183.45800781 C-115.59471054 182.56465225 -115.59982147 181.67129669 -115.60508728 180.75086975 C-115.61896949 177.80194366 -115.61802707 174.85325174 -115.61572266 171.90429688 C-115.61961126 169.84791986 -115.62394627 167.79154364 -115.62870789 165.73516846 C-115.63616784 161.42449339 -115.6358811 157.11390021 -115.63061523 152.80322266 C-115.62483089 147.29439285 -115.64172778 141.78590039 -115.66495991 136.27712631 C-115.67973588 132.02874814 -115.68056352 127.7804504 -115.67745018 123.53205109 C-115.67796178 121.50198958 -115.68316903 119.47192338 -115.6932621 117.4418869 C-115.7056796 114.59417736 -115.69880229 111.74711424 -115.68725586 108.89941406 C-115.69872147 107.6553051 -115.69872147 107.6553051 -115.7104187 106.38606262 C-115.65084856 99.69671581 -114.45443839 93.42451982 -110.51806641 87.89648438 C-105.33491061 82.98285268 -101.26378326 79.63531325 -93.87744141 79.23242188 C-92.60900391 79.32523438 -92.60900391 79.32523438 -91.31494141 79.41992188 C-91.22212891 77.65648437 -91.22212891 77.65648437 -91.12744141 75.85742188 C-88.62110502 53.71811711 -74.9278795 33.60016481 -58.31494141 19.41992188 C-49.24571936 12.20079092 -39.40219431 6.84655361 -28.31494141 3.41992188 C-27.51145578 3.16782204 -26.70797016 2.9157222 -25.88013649 2.65598297 C-17.24442822 0.21712682 -8.89671819 -0.01943447 0 0 Z " fill="#64359F" transform="translate(459.31494140625,286.580078125)"/>
<path d="M0 0 C6.74609781 4.49739854 6.74609781 4.49739854 9.1484375 6.76953125 C9.67453613 7.26211426 10.20063477 7.75469727 10.74267578 8.26220703 C11.28134277 8.77380371 11.82000977 9.28540039 12.375 9.8125 C13.52532039 10.89009339 14.67635881 11.96692082 15.828125 13.04296875 C16.37662109 13.55649902 16.92511719 14.0700293 17.49023438 14.59912109 C19.93491343 16.86748597 22.45462562 19.04514031 24.9765625 21.2265625 C27.51501171 23.45138092 30.00641776 25.72503319 32.5 28 C37.96012794 32.97461724 43.47780237 37.86553742 49.11328125 42.640625 C56.55051224 48.95441994 63.77511662 55.44396751 70.8984375 62.109375 C75.52579384 66.43560786 80.30896005 70.56424263 85.13671875 74.6640625 C85.72001953 75.16091553 86.30332031 75.65776855 86.90429688 76.16967773 C88.02965819 77.12755989 89.15700174 78.08312257 90.28710938 79.03540039 C91.43830613 80.01462783 92.5623755 81.02631262 93.66292667 82.06213474 C96.01997241 84.14345607 96.01997241 84.14345607 99.18075466 85.72946835 C103.56287833 88.40057016 106.69165889 91.36621288 109 96 C111.46564221 106.58218609 110.79379049 117.88352419 110.68476164 128.68153012 C110.65316129 133.21555249 110.69671645 137.7489615 110.73042297 142.28288269 C110.78426919 151.15279721 110.76823388 160.02125566 110.72703362 168.89118583 C110.69489241 176.10154177 110.68861336 183.31149561 110.70066643 190.52190971 C110.70236973 191.54954226 110.70407304 192.57717481 110.70582796 193.63594775 C110.70941222 195.7237904 110.71306129 197.81163295 110.71677446 199.89947539 C110.74864302 219.45947046 110.701712 239.01866374 110.62715381 258.57850336 C110.56497959 275.35061304 110.56805637 292.12166529 110.61938477 308.89379883 C110.67899773 328.38698488 110.69982415 347.87955846 110.6577763 367.37281126 C110.65338367 369.45250943 110.64903397 371.5322077 110.64472771 373.61190605 C110.64258141 374.63506739 110.64043512 375.65822872 110.63822379 376.71239494 C110.62572628 383.91202014 110.64065158 391.11128821 110.66610909 398.31086922 C110.69632084 407.08801413 110.68336036 415.86384921 110.61568809 424.64080555 C110.58222725 429.11677112 110.56768482 433.59060512 110.60542297 438.06658554 C110.63945206 442.16935576 110.61751833 446.26798433 110.55202138 450.3703379 C110.53799092 451.84925284 110.54390175 453.32852901 110.57242233 454.80723549 C110.6819819 460.97624455 110.68805176 466.45915833 106.43098247 471.2250241 C103.48835824 474.10562764 100.30427872 476.54722369 97 479 C95.04805855 480.56623789 93.11985793 482.15951117 91.1875 483.75 C90.28773438 484.47445313 89.38796875 485.19890625 88.4609375 485.9453125 C85.68218271 488.26535221 83.16669852 490.74473439 80.6484375 493.33984375 C76.62749438 497.38937177 72.18268348 500.99623611 67.8359375 504.6875 C61.26047354 510.2812332 54.79889286 515.96056176 48.48046875 521.84375 C45.02286368 525.06289955 41.51970949 528.21244243 37.9453125 531.30078125 C35.6633471 533.29406428 33.42771426 535.33493027 31.1875 537.375 C27.64839998 540.57652433 24.02896894 543.63146063 20.3125 546.625 C17.14240139 549.18512177 14.14488083 551.75856073 11.3125 554.6875 C8 558 8 558 0 564 C0 377.88 0 191.76 0 0 Z " fill="#FDCC04" transform="translate(759,262)"/>
<path d="M0 0 C0 185.79 0 371.58 0 563 C-3.84908683 561.07545658 -6.13335457 559.21988495 -9.25 556.3125 C-12.46649205 553.3348986 -15.68574181 550.36916153 -19 547.5 C-22.20899244 544.71185902 -25.35916444 541.86471815 -28.5 539 C-32.29009082 535.54356229 -36.11056033 532.13156146 -39.984375 528.76953125 C-42.28607764 526.74885044 -44.54764379 524.68687382 -46.8125 522.625 C-50.35160002 519.42347567 -53.97103106 516.36853937 -57.6875 513.375 C-61.46752288 510.31700396 -64.95748183 507.16241214 -68.3359375 503.671875 C-70.72152091 501.27509166 -73.27255926 499.09079027 -75.83203125 496.8828125 C-78.24842951 494.7842468 -80.62529024 492.645603 -83 490.5 C-85.92643213 487.86221443 -88.85483367 485.22774637 -91.8125 482.625 C-92.70033712 481.82478 -92.70033712 481.82478 -93.60611033 481.00839394 C-96.06909121 478.88055373 -96.06909121 478.88055373 -99.19417691 476.77943498 C-104.01863414 473.32640043 -108.19146414 470.28607953 -110.215734 464.56259573 C-110.67769866 460.56267836 -110.74644754 456.66432171 -110.66424561 452.64884949 C-110.68068378 451.11483944 -110.70277238 449.58088145 -110.72997594 448.04702455 C-110.78785737 443.85628692 -110.7652884 439.66934676 -110.72873878 435.47851264 C-110.70335814 430.9498063 -110.75295165 426.42181325 -110.79263306 421.89329529 C-110.85805223 413.03098964 -110.85312216 404.17007102 -110.82231876 395.30762955 C-110.79839461 388.10155272 -110.79919103 380.89587333 -110.81748199 373.6897831 C-110.82005147 372.66288122 -110.82262095 371.63597935 -110.82526828 370.57795924 C-110.83056951 368.49157224 -110.8359157 366.40518535 -110.84130636 364.31879858 C-110.88869115 344.76638192 -110.85492353 325.21474006 -110.79433337 305.66240201 C-110.7444482 288.90357354 -110.76854251 272.14615793 -110.84570312 255.38745117 C-110.93537889 235.90811887 -110.9756088 216.42965967 -110.94004178 196.95012456 C-110.9364041 194.87063791 -110.93284302 192.79115112 -110.92935944 190.7116642 C-110.92763528 189.68863001 -110.92591112 188.66559583 -110.92413472 187.61156061 C-110.91550636 180.41974695 -110.94232146 173.22857182 -110.98329926 166.03688622 C-111.03247746 157.26363428 -111.02816976 148.49233796 -110.95619223 139.71921178 C-110.92086758 135.24647567 -110.90906379 130.77711566 -110.9630394 126.30448914 C-111.29389287 96.6833991 -111.29389287 96.6833991 -103.71136975 88.7811082 C-101.17842466 86.61146435 -98.58957929 84.75211649 -95.72431803 83.04800761 C-93.46904358 81.67729481 -91.60237364 79.99440957 -89.6875 78.1875 C-89.09324219 77.67574219 -88.49898437 77.16398437 -87.88671875 76.63671875 C-85.56341213 74.62126228 -83.28251535 72.56151538 -81 70.5 C-77.38323655 67.23609152 -73.73610392 64.01209051 -70.0625 60.8125 C-67.69035571 58.72788836 -65.34443935 56.61571356 -63 54.5 C-59.38323655 51.23609152 -55.73610392 48.01209051 -52.0625 44.8125 C-49.69035571 42.72788836 -47.34443935 40.61571356 -45 38.5 C-41.38323655 35.23609152 -37.73610392 32.01209051 -34.0625 28.8125 C-31.69035571 26.72788836 -29.34443935 24.61571356 -27 22.5 C-20.4390551 16.58618927 -13.7849232 10.79168221 -7.0625 5.0625 C-6.48201904 4.56508301 -5.90153809 4.06766602 -5.3034668 3.55517578 C-1.11552697 0 -1.11552697 0 0 0 Z " fill="#FDCB03" transform="translate(288,262)"/>
<path d="M0 0 C0.6904568 -0.00538554 1.38091359 -0.01077108 2.09229332 -0.01631981 C4.38756586 -0.03053665 6.68225653 -0.0235116 8.97755432 -0.01637268 C10.63061483 -0.02207955 12.28367141 -0.02904503 13.9367218 -0.03717041 C18.41403142 -0.05508182 22.89114483 -0.05393726 27.36847949 -0.04822803 C31.1109953 -0.04513331 34.85347358 -0.05123177 38.59598404 -0.05726677 C47.42714482 -0.07130371 56.25820884 -0.06975758 65.08937073 -0.05836487 C74.18999328 -0.04688374 83.29032112 -0.0609611 92.39090484 -0.08776134 C100.2144819 -0.1099355 108.03796656 -0.11655187 115.8615728 -0.11068493 C120.52984143 -0.10731834 125.19792115 -0.10971063 129.86616325 -0.12693596 C134.25676182 -0.14243044 138.64692459 -0.13842194 143.0375061 -0.11963081 C144.64509563 -0.11595188 146.25271762 -0.11903311 147.86027718 -0.1295166 C164.70255519 -0.23093231 164.70255519 -0.23093231 171.50000668 5.93264103 C176.13287152 10.62238394 178.32774577 16.54803197 180.73365784 22.57518005 C181.67307832 24.87363669 182.61322676 27.17179588 183.55397034 29.4697113 C183.80304642 30.0836676 184.0521225 30.6976239 184.30874634 31.33018494 C186.10257322 35.7413615 187.95954229 40.1222564 189.84759521 44.49389648 C191.26186375 47.76897753 192.66378944 51.0492806 194.06498718 54.32997131 C194.75982792 55.94958678 195.4595892 57.56710023 196.16429138 59.18244934 C197.15649409 61.46105047 198.12871507 63.74724491 199.09693909 66.03611755 C199.40046295 66.72046371 199.70398682 67.40480988 200.01670837 68.1098938 C201.97004218 72.80211311 201.97004218 72.80211311 201.09010315 75.7653656 C191.27779863 88.06777381 160.15238952 89.96663834 145.78688049 91.61875916 C104.20837262 96.2059796 61.44220703 96.21340161 19.79615784 92.38768005 C18.6621051 92.28584412 17.52805237 92.18400818 16.3596344 92.0790863 C-4.10609317 90.15653028 -23.74195244 86.72521781 -42.20384216 77.38768005 C-41.56531238 71.06991371 -39.73631694 65.35034034 -37.74681091 59.3368988 C-37.40257584 58.28291397 -37.05834076 57.22892914 -36.70367432 56.14300537 C-35.97594918 53.91904948 -35.24539528 51.69601747 -34.51219177 49.47386169 C-33.39921699 46.0990584 -32.29593171 42.72120618 -31.19407654 39.34275818 C-30.48306235 37.17395001 -29.77149171 35.00532417 -29.05931091 32.8368988 C-28.73311264 31.83865585 -28.40691437 30.8404129 -28.0708313 29.81192017 C-22.02593846 11.53869385 -22.02593846 11.53869385 -17.89134216 6.95018005 C-17.09276794 6.02398865 -17.09276794 6.02398865 -16.27806091 5.0790863 C-11.27202584 0.99695224 -6.33096994 0.01251288 0 0 Z " fill="#FDFDFE" transform="translate(446.20384216308594,624.6123199462891)"/>
<path d="M0 0 C0.95106628 0.00027191 1.90213257 0.00054382 2.88201904 0.00082397 C84.92827748 0.10800113 84.92827748 0.10800113 106.5625 21.1875 C106.8925 22.1775 107.2225 23.1675 107.5625 24.1875 C106.92183594 24.88875 106.28117188 25.59 105.62109375 26.3125 C99.11391965 33.45002628 92.70022599 40.64856187 86.46166992 48.02246094 C85.49179105 49.16875506 84.52061077 50.31394939 83.5480957 51.45800781 C81.58499713 53.77121097 79.64259508 56.08541803 77.76953125 58.47265625 C74.55587775 62.53064766 71.53936679 64.86308827 66.5625 66.1875 C62.38577274 66.61973405 58.23327923 66.60769664 54.03710938 66.59155273 C52.16512627 66.60184761 52.16512627 66.60184761 50.25532532 66.61235046 C46.84816821 66.62747193 43.44156022 66.62912491 40.03441048 66.62340808 C37.18402885 66.62030835 34.33369629 66.62641723 31.48332167 66.63244683 C24.75690564 66.64647083 18.03061668 66.64494801 11.30419922 66.63354492 C4.37683241 66.62206033 -2.55014741 66.63614962 -9.47746325 66.6629414 C-15.43777702 66.6851257 -21.39796955 66.69172982 -27.35832167 66.68586498 C-30.91266627 66.68250134 -34.46676272 66.68487088 -38.02107239 66.70211601 C-41.98490478 66.7205108 -45.94826394 66.70636987 -49.91210938 66.68920898 C-51.0821904 66.69887695 -52.25227142 66.70854492 -53.45780945 66.71850586 C-60.01637468 66.65905715 -64.11770375 66.12711703 -69.4375 62.1875 C-71.703125 59.8125 -71.703125 59.8125 -73.6875 57.1875 C-76.95323865 53.01090907 -80.31946664 49.05420626 -83.9375 45.1875 C-88.39350278 40.40434369 -92.57038607 35.47015572 -96.66015625 30.3671875 C-98.40395184 28.15361041 -98.40395184 28.15361041 -100.4375 26.1875 C-101.0625 23.5 -101.0625 23.5 -100.4375 20.1875 C-89.61536094 6.5015637 -68.59311915 4.79845016 -52.5625 2.5 C-51.75127686 2.38060059 -50.94005371 2.26120117 -50.10424805 2.13818359 C-33.54174137 -0.06717186 -16.67916999 -0.01812993 0 0 Z " fill="#FEFDFE" transform="translate(523.4375,301.8125)"/>
<path d="M0 0 C6.74609781 4.49739854 6.74609781 4.49739854 9.1484375 6.76953125 C9.67453613 7.26211426 10.20063477 7.75469727 10.74267578 8.26220703 C11.28134277 8.77380371 11.82000977 9.28540039 12.375 9.8125 C13.52532039 10.89009339 14.67635881 11.96692082 15.828125 13.04296875 C16.37662109 13.55649902 16.92511719 14.0700293 17.49023438 14.59912109 C19.93491343 16.86748597 22.45462562 19.04514031 24.9765625 21.2265625 C27.51501171 23.45138092 30.00641776 25.72503319 32.5 28 C36.95008971 32.05907764 41.44536141 36.05873681 46 40 C45.34 40.66 44.68 41.32 44 42 C40.66106153 41.66196697 38.73226148 40.23182681 36.25 38.0625 C35.63640625 37.53785156 35.0228125 37.01320313 34.390625 36.47265625 C33 35 33 35 33 33 C32.443125 32.7525 31.88625 32.505 31.3125 32.25 C26.21099639 29.49243048 20.39085649 25.12942711 18 19.75 C17.67 19.1725 17.34 18.595 17 18 C15.34178227 17.62690101 13.67422986 17.29299023 12 17 C10.25372522 14.38058783 9.61277612 12.96175123 9 10 C7.68 10 6.36 10 5 10 C4.98288939 61.93038865 4.96696777 113.86077752 4.95765686 165.79116821 C4.9575188 166.55919906 4.95738075 167.32722991 4.95723851 168.11853441 C4.95424591 184.80809179 4.95147569 201.4976492 4.94893467 218.18720665 C4.94768728 226.37122371 4.94639074 234.55524076 4.94506836 242.73925781 C4.9449376 243.55368556 4.94480684 244.36811331 4.94467212 245.20722069 C4.94040732 271.62672842 4.93289345 298.04623401 4.92370278 324.46574044 C4.91427885 351.60494173 4.90811657 378.74414184 4.90608501 405.88334473 C4.90579684 409.71258042 4.9054712 413.54181611 4.90512276 417.37105179 C4.90505533 418.12473395 4.90498791 418.87841612 4.90491844 419.65493714 C4.90373464 431.80932255 4.89909097 443.96370432 4.89316797 456.11808825 C4.88729321 468.32390407 4.88502888 480.52971627 4.88649862 492.73553346 C4.88719438 499.35435559 4.88612321 505.97316907 4.88079453 512.59198952 C4.87595927 518.64174915 4.8756622 524.69149075 4.87910111 530.74125119 C4.87952667 532.93911917 4.87823201 535.13698824 4.87511682 537.33485405 C4.87115035 540.30407109 4.87323822 543.27322153 4.87695217 546.24243736 C4.87432516 547.1115516 4.87169814 547.98066584 4.86899152 548.87611687 C4.76534892 553.07176889 4.76534892 553.07176889 6 557 C4.31525278 560.36949443 3.1808342 561.87944386 0 564 C0 377.88 0 191.76 0 0 Z " fill="#FCC009" transform="translate(759,262)"/>
<path d="M0 0 C2.10546875 -0.34765625 2.10546875 -0.34765625 5 0 C7.29735794 1.79140971 9.26441431 3.52165456 11.3125 5.5625 C12.47066238 6.67519967 13.62951363 7.78718277 14.7890625 8.8984375 C15.34368164 9.43694336 15.89830078 9.97544922 16.46972656 10.53027344 C18.32426061 12.3114309 20.23928924 14.00965319 22.1875 15.6875 C22.74962871 16.19050961 23.31175743 16.69351922 23.89092034 17.21177155 C26.01260503 19.06670907 26.01260503 19.06670907 28.51540834 20.75958341 C32.5706578 23.82795826 35.50500026 26.26523224 36.92988241 31.25885022 C37.28658518 35.24040367 37.33037064 39.1603395 37.2631073 43.15101624 C37.27392477 44.6875435 37.28910254 46.22404517 37.30824167 47.76049131 C37.34794518 51.96687491 37.3255401 56.17095342 37.29258764 60.3773104 C37.26786336 64.91940894 37.30081495 69.46114554 37.3263092 74.00318909 C37.36689422 82.89437274 37.35361909 91.78469408 37.32115778 100.67588026 C37.29582801 107.90201824 37.29041922 115.12791855 37.29921913 122.35409355 C37.30108454 123.89745133 37.30108454 123.89745133 37.30298764 125.47198806 C37.30561262 127.56225247 37.30828905 129.65251682 37.31101636 131.7427811 C37.334352 151.33687952 37.29719342 170.93050327 37.23879681 190.52450549 C37.19002612 207.3349722 37.1907709 224.14483392 37.22827148 240.95532227 C37.27179437 260.48134173 37.28635905 280.00701344 37.25349981 299.53306574 C37.2500627 301.61528451 37.24665612 303.69750334 37.24328041 305.77972221 C37.24159694 306.80419065 37.23991348 307.82865908 37.23817899 308.88417201 C37.22825811 316.10164213 37.23884761 323.31891566 37.25722313 330.5363636 C37.27898231 339.33211706 37.26842908 348.12713062 37.21664437 356.92277009 C37.19101059 361.41018288 37.1797084 365.89639944 37.20743179 370.38382721 C37.23239772 374.49330344 37.21569695 378.60044099 37.16596285 382.70967274 C37.15522896 384.19470076 37.1596015 385.67993228 37.18073644 387.16484869 C37.3263178 398.27764716 37.3263178 398.27764716 33.91987479 402.70124519 C31.70281185 404.69233587 29.51437165 406.40687027 27 408 C26.01 407.34 25.02 406.68 24 406 C25.63412443 404.29159719 26.86906094 403.06546953 29 402 C29.65213292 399.97536745 29.65213292 399.97536745 30 398 C30.66 398 31.32 398 32 398 C32 276.23 32 154.46 32 29 C31.34 29 30.68 29 30 29 C30 28.34 30 27.68 30 27 C29.195625 26.7525 28.39125 26.505 27.5625 26.25 C26.716875 25.8375 25.87125 25.425 25 25 C24.6278958 23.67696283 24.29369827 22.34262065 24 21 C22.0162233 19.71563266 22.0162233 19.71563266 20 19 C20 17.68 20 16.36 20 15 C19.36191406 14.89042969 18.72382812 14.78085937 18.06640625 14.66796875 C17.24011719 14.50941406 16.41382813 14.35085938 15.5625 14.1875 C14.73878906 14.03667969 13.91507813 13.88585937 13.06640625 13.73046875 C12.38449219 13.48941406 11.70257812 13.24835938 11 13 C10.67 12.01 10.34 11.02 10 10 C9.34 10 8.68 10 8 10 C8 9.34 8 8.68 8 8 C7.34 8 6.68 8 6 8 C1.23255814 3.69767442 1.23255814 3.69767442 0 0 Z " fill="#FBBF01" transform="translate(832,330)"/>
<path d="M0 0 C-1.90072848 12.95740514 -14.52392531 24.87467891 -24.625 32.5 C-31.81507377 37.40929646 -38.11531338 41.07228976 -47 40 C-49.07259317 38.45393165 -49.87383356 37.50466577 -50.50390625 34.984375 C-50.60970354 30.94997184 -50.41973666 27.84873156 -47.9375 24.5625 C-37.16401736 13.61073277 -15.69987342 0 0 0 Z " fill="#FBF9FA" transform="translate(643,760)"/>
<path d="M0 0 C17.37673705 3.74792368 35.47301386 12.23174347 48.1875 24.875 C50.64310264 29.10879765 51.03641077 33.19796341 50 38 C45.87211192 40.75192538 42.84721829 40.8127511 38 40 C21.19856689 33.48262993 8.15785959 18.66482613 0 3 C0 2.01 0 1.02 0 0 Z " fill="#FBFAFB" transform="translate(398,760)"/>
<path d="M0 0 C2.31 0.33 4.62 0.66 7 1 C7 1.99 7 2.98 7 4 C9.33214148 5.20628008 11.49642139 6.1654738 14 7 C14.28875 7.804375 14.5775 8.60875 14.875 9.4375 C15.73873568 12.18631706 15.73873568 12.18631706 18.25 13 C19.1575 13.33 20.065 13.66 21 14 C25.35351486 17.26513614 28.55647933 20.76182071 32 25 C33.62944672 26.71002375 35.30526619 28.35368715 37 30 C36.34 31.32 35.68 32.64 35 34 C34.5875 33.61255615 34.175 33.2251123 33.75 32.82592773 C23.96191238 23.59757581 23.96191238 23.59757581 13.91015625 14.66015625 C10.58783508 11.7726583 7.35162998 8.78864038 4.1015625 5.8203125 C2.13276579 3.96323333 2.13276579 3.96323333 0 3 C0 2.01 0 1.02 0 0 Z " fill="#FAC10C" transform="translate(234,776)"/>
<path d="M0 0 C-0.56290945 3.55481171 -1.67449253 4.93595468 -4.4375 7.1875 C-7.68448035 9.9000936 -10.86612798 12.65674981 -14 15.5 C-17.72695611 18.86055797 -21.45937387 22.21241117 -25.2578125 25.4921875 C-26.75292495 26.78616375 -28.22287241 28.10911684 -29.6875 29.4375 C-32.36919799 31.2494581 -33.8277462 31.36254329 -37 31 C-35.50861309 27.3571041 -33.43850799 25.43753716 -30.4375 22.9375 C-26.88105236 20.06425553 -26.88105236 20.06425553 -25 16 C-23.35 16 -21.7 16 -20 16 C-19.731875 15.360625 -19.46375 14.72125 -19.1875 14.0625 C-18 12 -18 12 -15 11 C-13.79117904 8.99983534 -13.79117904 8.99983534 -13 7 C-12.01 7 -11.02 7 -10 7 C-10 6.34 -10 5.68 -10 5 C-9.34 5 -8.68 5 -8 5 C-8 4.34 -8 3.68 -8 3 C-7.34 3 -6.68 3 -6 3 C-6 2.34 -6 1.68 -6 1 C-4 0 -4 0 0 0 Z " fill="#F9C20C" transform="translate(813,776)"/>
<path d="M0 0 C0.1953125 6.0546875 0.1953125 6.0546875 0 8 C-0.66 8.66 -1.32 9.32 -2 10 C-2.33 9.34 -2.66 8.68 -3 8 C-3.66 8 -4.32 8 -5 8 C-5 8.66 -5 9.32 -5 10 C-8.42263153 13.52687411 -12.27687467 16.63822059 -16.4375 19.25 C-19.27169035 20.80659893 -19.27169035 20.80659893 -20 24 C-21.31647119 24.69937532 -22.65022151 25.36729133 -24 26 C-24.33 26.66 -24.66 27.32 -25 28 C-27.31 28 -29.62 28 -32 28 C-4.31578947 0 -4.31578947 0 0 0 Z " fill="#FABF07" transform="translate(288,262)"/>
<path d="M0 0 C1.670625 0.061875 1.670625 0.061875 3.375 0.125 C-2.52796515 6.10697233 -8.70204089 11.7959282 -14.87207031 17.5 C-16.33586997 18.85697082 -17.79021661 20.22412969 -19.2421875 21.59375 C-19.92539062 22.2228125 -20.60859375 22.851875 -21.3125 23.5 C-21.87324219 24.02335938 -22.43398438 24.54671875 -23.01171875 25.0859375 C-24.625 26.125 -24.625 26.125 -28.625 26.125 C-27.965 25.465 -27.305 24.805 -26.625 24.125 C-26.955 23.465 -27.285 22.805 -27.625 22.125 C-25.33007812 20.31835938 -25.33007812 20.31835938 -23.03515625 18.51171875 C-21.35344923 17.06816909 -21.35344923 17.06816909 -20.625 14.125 C-17.36527703 11.13184316 -13.87347291 8.61353288 -9.75 7 C-7.46208169 6.3067359 -7.46208169 6.3067359 -6.4375 4.125 C-6.169375 3.465 -5.90125 2.805 -5.625 2.125 C-3.625 0.125 -3.625 0.125 0 0 Z " fill="#FAC20E" transform="translate(854.625,737.875)"/>
<path d="M0 0 C1.32 0.33 2.64 0.66 4 1 C4 1.66 4 2.32 4 3 C4.58265625 3.26941406 5.1653125 3.53882813 5.765625 3.81640625 C8.01108176 5.00587023 9.80694844 6.30583491 11.75 7.9375 C12.36359375 8.44152344 12.9771875 8.94554687 13.609375 9.46484375 C15 11 15 11 15 14 C16.093125 14.391875 17.18625 14.78375 18.3125 15.1875 C21.07336233 16.3747268 22.02221921 17.02707966 24 19.4375 C25.11814664 22.30275077 24.86726161 23.16333181 24 26 C23.5875 25.57589844 23.175 25.15179687 22.75 24.71484375 C15.0118509 16.85578607 6.56132517 9.94033897 -2 3 C-1.34 2.67 -0.68 2.34 0 2 C0 1.34 0 0.68 0 0 Z " fill="#F9C10D" transform="translate(183,729)"/>
<path d="M0 0 C1 2 2 4 3 6 C2.67 6.66 2.34 7.32 2 8 C-0.5 8.6875 -0.5 8.6875 -3 9 C-3.33 8.67 -3.66 8.34 -4 8 C-5.68681738 9.10041919 -5.68681738 9.10041919 -7 11 C-6.76716851 14.14921909 -6.76716851 14.14921909 -6 17 C-8.31 16.67 -10.62 16.34 -13 16 C-13.33 15.01 -13.66 14.02 -14 13 C-9.51286432 8.4103663 -5.01431776 4.01145421 0 0 Z " fill="#FBF9F0" transform="translate(852,743)"/>
<path d="M0 0 C6.46904969 -0.36617262 6.46904969 -0.36617262 8.8125 1.25 C10 3 10 3 10.8125 5.125 C11.92689868 7.36617977 11.92689868 7.36617977 15.125 7.75 C16.07375 7.8325 17.0225 7.915 18 8 C18 10.31 18 12.62 18 15 C14.14523771 13.38701436 11.48366148 10.88486186 8.4375 8.0625 C7.48746094 7.18722656 6.53742188 6.31195312 5.55859375 5.41015625 C3.67280628 3.63377324 1.81304842 1.84967566 0 0 Z " fill="#F8C20F" transform="translate(270,810)"/>
<path d="M0 0 C0.66 0.66 1.32 1.32 2 2 C1.01 2.495 1.01 2.495 0 3 C0 4.32 0 5.64 0 7 C-1.32 7 -2.64 7 -4 7 C-4.33 7.66 -4.66 8.32 -5 9 C-5.66 9 -6.32 9 -7 9 C-7.12375 9.598125 -7.2475 10.19625 -7.375 10.8125 C-8 13 -8 13 -10 16 C-10.66 16 -11.32 16 -12 16 C-12.66 16.66 -13.32 17.32 -14 18 C-14 17.01 -14 16.02 -14 15 C-14.66 14.67 -15.32 14.34 -16 14 C-14.2725597 12.4147483 -12.54312043 10.83177374 -10.8125 9.25 C-9.36810547 7.92742188 -9.36810547 7.92742188 -7.89453125 6.578125 C-5.32582261 4.29020637 -2.70839628 2.11918393 0 0 Z " fill="#FBF8EB" transform="translate(797,792)"/>
<path d="M0 0 C-1.98887011 5.96661033 -8.59766484 10.13000945 -14 13 C-14.33 11.35 -14.66 9.7 -15 8 C-13.68 8 -12.36 8 -11 8 C-10.71125 7.401875 -10.4225 6.80375 -10.125 6.1875 C-7.55918828 1.19842165 -7.55918828 1.19842165 -5.0625 0.3125 C-3 0 -3 0 0 0 Z " fill="#FAC20F" transform="translate(778,808)"/>
<path d="M0 0 C7.625 1.75 7.625 1.75 11 4 C10.01 4 9.02 4 8 4 C7.87625 5.134375 7.7525 6.26875 7.625 7.4375 C7.41875 8.613125 7.2125 9.78875 7 11 C6.01 11.495 6.01 11.495 5 12 C4.15885829 10.56705502 3.32734313 9.12845595 2.5 7.6875 C1.80390625 6.48673828 1.80390625 6.48673828 1.09375 5.26171875 C0 3 0 3 0 0 Z " fill="#F4EFF4" transform="translate(398,760)"/>
<path d="M0 0 C2 2 2 2 2 6 C-0.25660873 8.34018683 -1.48760851 8.96506422 -4.75 9.1875 C-5.4925 9.125625 -6.235 9.06375 -7 9 C-7.33 9.66 -7.66 10.32 -8 11 C-8.99 10.67 -9.98 10.34 -11 10 C-5.555 5.05 -5.555 5.05 0 0 Z " fill="#FCF7EB" transform="translate(780,807)"/>
<path d="M0 0 C1.32 0.33 2.64 0.66 4 1 C4.12375 1.969375 4.2475 2.93875 4.375 3.9375 C4.58125 4.948125 4.7875 5.95875 5 7 C5.66 7.33 6.32 7.66 7 8 C6.34 10.31 5.68 12.62 5 15 C3.01297464 13.34237456 2.09011076 12.40771424 1.5234375 9.84375 C1.47445313 9.0703125 1.42546875 8.296875 1.375 7.5 C1.17885852 4.69797885 0.90041818 2.70125455 0 0 Z " fill="#6F43A6" transform="translate(446,785)"/>
<path d="M0 0 C0 0.66 0 1.32 0 2 C0.99 1.67 1.98 1.34 3 1 C3.1875 3.875 3.1875 3.875 3 7 C2.01 7.66 1.02 8.32 0 9 C-1.98 7.35 -3.96 5.7 -6 4 C-2.25 0 -2.25 0 0 0 Z " fill="#FCFCF5" transform="translate(773,265)"/>
<path d="M0 0 C1 3.875 1 3.875 1 5 C1.99 5 2.98 5 4 5 C3.67 6.32 3.34 7.64 3 9 C2.01 8.67 1.02 8.34 0 8 C0 9.32 0 10.64 0 12 C-2.97 11.67 -5.94 11.34 -9 11 C-9 10.67 -9 10.34 -9 10 C-7.02 10 -5.04 10 -3 10 C-2.95101563 9.36191406 -2.90203125 8.72382813 -2.8515625 8.06640625 C-2.77679688 7.24011719 -2.70203125 6.41382813 -2.625 5.5625 C-2.55539062 4.73878906 -2.48578125 3.91507812 -2.4140625 3.06640625 C-2.27742188 2.38449219 -2.14078125 1.70257813 -2 1 C-1.34 0.67 -0.68 0.34 0 0 Z " fill="#7449AA" transform="translate(371,356)"/>
<path d="M0 0 C-3.24635735 3.9226818 -7.0527242 5.96609666 -12 7 C-14.25 6.57421875 -14.25 6.57421875 -16 6 C-15.01 6 -14.02 6 -13 6 C-13 5.34 -13 4.68 -13 4 C-3.92465753 -1.30821918 -3.92465753 -1.30821918 0 0 Z " fill="#6B40A3" transform="translate(701,491)"/>
<path d="M0 0 C0.33 0.99 0.66 1.98 1 3 C-4.94 7.95 -4.94 7.95 -11 13 C-11.33 12.34 -11.66 11.68 -12 11 C-4.88610478 2.3690205 -4.88610478 2.3690205 0 0 Z " fill="#F7F4F7" transform="translate(810,873)"/>
<path d="M0 0 C-0.19921875 1.86328125 -0.19921875 1.86328125 -1 4 C-3.14453125 5.23046875 -3.14453125 5.23046875 -5.8125 6.1875 C-6.68519531 6.51105469 -7.55789063 6.83460938 -8.45703125 7.16796875 C-10.62778564 7.87821558 -12.77575186 8.48671197 -15 9 C-11.19160575 4.71555647 -5.92978831 0 0 0 Z " fill="#6A3FA2" transform="translate(419,296)"/>
<path d="M0 0 C3.53600465 1.91135386 5.78972846 3.62642766 8 7 C7 8 7 8 4.5 8.0625 C3.675 8.041875 2.85 8.02125 2 8 C1.67 8 1.34 8 1 8 C0.67 8 0.34 8 0 8 C0 5.36 0 2.72 0 0 Z " fill="#F9C10D" transform="translate(760,263)"/>
<path d="M0 0 C1.1484375 1.640625 1.1484375 1.640625 2 4 C1.1015625 6.796875 1.1015625 6.796875 -0.375 9.75 C-0.85710938 10.73484375 -1.33921875 11.7196875 -1.8359375 12.734375 C-2.22007812 13.48203125 -2.60421875 14.2296875 -3 15 C-3.99 14.67 -4.98 14.34 -6 14 C-5.67 13.01 -5.34 12.02 -5 11 C-4.34 11 -3.68 11 -3 11 C-3.020625 10.05125 -3.04125 9.1025 -3.0625 8.125 C-3 5 -3 5 -2 3 C-1.34 3 -0.68 3 0 3 C0 2.01 0 1.02 0 0 Z " fill="#6A3DA5" transform="translate(677,749)"/>
<path d="M0 0 C0.66 0.33 1.32 0.66 2 1 C1.67 2.98 1.34 4.96 1 7 C0.01 6.67 -0.98 6.34 -2 6 C-1.67 6.99 -1.34 7.98 -1 9 C-1.99 9 -2.98 9 -4 9 C-4.66 8.01 -5.32 7.02 -6 6 C-4.02 4.02 -2.04 2.04 0 0 Z M-8 7 C-7.34 7.33 -6.68 7.66 -6 8 C-6.99 8 -7.98 8 -9 8 C-8.67 7.67 -8.34 7.34 -8 7 Z " fill="#FBF7EB" transform="translate(862,734)"/>
<path d="M0 0 C0.33 0.66 0.66 1.32 1 2 C0.01 3.485 0.01 3.485 -1 5 C-1 6.32 -1 7.64 -1 9 C-1.99 10.485 -1.99 10.485 -3 12 C-4.65 11.67 -6.3 11.34 -8 11 C-7.59007812 10.45730469 -7.18015625 9.91460938 -6.7578125 9.35546875 C-6.21898437 8.64003906 -5.68015625 7.92460938 -5.125 7.1875 C-4.59132813 6.47980469 -4.05765625 5.77210938 -3.5078125 5.04296875 C-2.29185219 3.39543703 -1.13583859 1.70375789 0 0 Z " fill="#6C42A2" transform="translate(871,811)"/>
<path d="M0 0 C4.17882671 2.56428003 7.12505529 5.01930733 10 9 C9.34 9 8.68 9 8 9 C7.67 9.66 7.34 10.32 7 11 C6.566875 10.175 6.13375 9.35 5.6875 8.5 C5.130625 7.675 4.57375 6.85 4 6 C3.01 6 2.02 6 1 6 C0.67 4.02 0.34 2.04 0 0 Z " fill="#FBF8EB" transform="translate(187,737)"/>
<path d="M0 0 C1.8125 0.125 1.8125 0.125 4 1 C5.8125 3.875 5.8125 3.875 7 7 C6.67 7.99 6.34 8.98 6 10 C3.36 7.69 0.72 5.38 -2 3 C-1.34 2.67 -0.68 2.34 0 2 C0 1.34 0 0.68 0 0 Z " fill="#F9C418" transform="translate(183,729)"/>
<path d="M0 0 C1.32 0 2.64 0 4 0 C5.65 2.97 7.3 5.94 9 9 C5 9 5 9 2 8 C2.33 6.02 2.66 4.04 3 2 C2.01 1.67 1.02 1.34 0 1 C0 0.67 0 0.34 0 0 Z " fill="#6F43A3" transform="translate(665,325)"/>
<path d="M0 0 C-1.65 1.98 -3.3 3.96 -5 6 C-5.99 5.67 -6.98 5.34 -8 5 C-8 3.33333333 -8 1.66666667 -8 0 C-5.13822943 -1.43088528 -3.06624227 -0.59991697 0 0 Z " fill="#FBF9EC" transform="translate(264,282)"/>
<path d="M0 0 C0.99 0.495 0.99 0.495 2 1 C1.01 1.495 1.01 1.495 0 2 C0 1.34 0 0.68 0 0 Z M-5 1 C-0.25 1.75 -0.25 1.75 2 4 C2.33 4.66 2.66 5.32 3 6 C4.32 5.67 5.64 5.34 7 5 C7 5.99 7 6.98 7 8 C6.01 8.33 5.02 8.66 4 9 C1.73828125 7.6015625 1.73828125 7.6015625 -0.6875 5.625 C-1.49574219 4.97789062 -2.30398438 4.33078125 -3.13671875 3.6640625 C-3.75160156 3.11492188 -4.36648438 2.56578125 -5 2 C-5 1.67 -5 1.34 -5 1 Z " fill="#693FA2" transform="translate(404,787)"/>
<path d="M0 0 C3.78611227 0.54087318 5.55400767 2.11722332 8 5 C8 5.66 8 6.32 8 7 C3.52599758 7.36275695 3.52599758 7.36275695 1.1875 5.75 C0 4 0 4 0 0 Z " fill="#F9C00B" transform="translate(824,321)"/>
<path d="M0 0 C0.66 0.33 1.32 0.66 2 1 C1.67 2.32 1.34 3.64 1 5 C-0.32 5 -1.64 5 -3 5 C-3 6.32 -3 7.64 -3 9 C-5.31 9.33 -7.62 9.66 -10 10 C-6.66666667 6.66666667 -3.33333333 3.33333333 0 0 Z " fill="#FAF6E7" transform="translate(836,757)"/>
<path d="M0 0 C2.00720923 0.28674418 4.0085944 0.61866701 6 1 C6 1.99 6 2.98 6 4 C6.33 4.99 6.66 5.98 7 7 C6.01 7.495 6.01 7.495 5 8 C5 7.34 5 6.68 5 6 C4.38125 5.731875 3.7625 5.46375 3.125 5.1875 C1 4 1 4 -1 1 C-0.67 0.67 -0.34 0.34 0 0 Z " fill="#FBF9EC" transform="translate(864,352)"/>
<path d="M0 0 C0.33 0.66 0.66 1.32 1 2 C0.06553465 4.03144641 -0.93224776 6.03533587 -2 8 C-2.66 7.67 -3.32 7.34 -4 7 C-5.65 8.32 -7.3 9.64 -9 11 C-9.66 10.67 -10.32 10.34 -11 10 C-5.555 5.05 -5.555 5.05 0 0 Z " fill="#F6C519" transform="translate(273,274)"/>
<path d="M0 0 C0.99 0.66 1.98 1.32 3 2 C0.36 4.31 -2.28 6.62 -5 9 C-5.66 7.68 -6.32 6.36 -7 5 C-6.67 4.34 -6.34 3.68 -6 3 C-2.9375 2.375 -2.9375 2.375 0 2 C0 1.34 0 0.68 0 0 Z " fill="#FBF7E4" transform="translate(283,262)"/>
<path d="M0 0 C1.65 0 3.3 0 5 0 C5.66 1.32 6.32 2.64 7 4 C6.01 5.485 6.01 5.485 5 7 C2.5 5.1875 2.5 5.1875 0 3 C0 2.01 0 1.02 0 0 Z " fill="#F8C20E" transform="translate(225,768)"/>
<path d="M0 0 C0.66 0 1.32 0 2 0 C2 0.66 2 1.32 2 2 C3.32 2.66 4.64 3.32 6 4 C5.67 5.32 5.34 6.64 5 8 C3.0625 7.3125 3.0625 7.3125 1 6 C0.39261598 3.92477126 0 2.1638224 0 0 Z " fill="#FABF07" transform="translate(210,752)"/>
<path d="M0 0 C3.79588866 0.54226981 5.47211993 2.20127563 8 5 C6.35 5.66 4.7 6.32 3 7 C3 6.34 3 5.68 3 5 C2.01 4.67 1.02 4.34 0 4 C0 2.68 0 1.36 0 0 Z " fill="#FCFAED" transform="translate(202,752)"/>
<path d="M0 0 C0.33 0.66 0.66 1.32 1 2 C1.66 2.33 2.32 2.66 3 3 C0.36 4.98 -2.28 6.96 -5 9 C-5.66 8.34 -6.32 7.68 -7 7 C-4.66666667 4.66666667 -2.33333333 2.33333333 0 0 Z " fill="#F8C318" transform="translate(863,729)"/>
<path d="M0 0 C0.99 0.33 1.98 0.66 3 1 C2.34 1 1.68 1 1 1 C1.33 1.99 1.66 2.98 2 4 C0.5998884 6.8002232 -1.26572551 7.56776098 -4 9 C-4.99 9 -5.98 9 -7 9 C-4.69 6.03 -2.38 3.06 0 0 Z " fill="#F3EDF5" transform="translate(171,282)"/>
<path d="M0 0 C0.5 2.1875 0.5 2.1875 0 5 C-2.43100182 7.10353811 -5.03640346 8.75029061 -8 10 C-8.66 9.67 -9.32 9.34 -10 9 C-8.52386015 7.49702124 -7.04400843 5.99768715 -5.5625 4.5 C-4.73878906 3.6646875 -3.91507813 2.829375 -3.06640625 1.96875 C-1 0 -1 0 0 0 Z " fill="#F0E9F5" transform="translate(222,225)"/>
<path d="M0 0 C1.31611677 0.95336021 2.62778961 1.91285774 3.9375 2.875 C4.66839844 3.40867187 5.39929688 3.94234375 6.15234375 4.4921875 C8 6 8 6 9 8 C6.69 8 4.38 8 2 8 C1.814375 7.071875 1.814375 7.071875 1.625 6.125 C1.12802644 3.80879168 1.12802644 3.80879168 -1 2 C-0.67 1.34 -0.34 0.68 0 0 Z " fill="#FBF9E9" transform="translate(255,797)"/>
<path d="M0 0 C0.99 0.33 1.98 0.66 3 1 C3 2.66666667 3 4.33333333 3 6 C0.36 6.33 -2.28 6.66 -5 7 C-3.35 4.69 -1.7 2.38 0 0 Z " fill="#F6F2F6" transform="translate(177,274)"/>
<path d="M0 0 C0.33 0.99 0.66 1.98 1 3 C-2.3 4.32 -5.6 5.64 -9 7 C-9 6.01 -9 5.02 -9 4 C-6.01353231 2.00902154 -3.40312738 1.05875074 0 0 Z " fill="#693EA2" transform="translate(628,802)"/>
<path d="M0 0 C2.46800047 1.15173355 4.04783565 2.04783565 6 4 C6 4.99 6 5.98 6 7 C3.11424181 6.60196439 2.17810487 6.20990931 0.25 3.9375 C-0.1625 3.298125 -0.575 2.65875 -1 2 C-0.67 1.34 -0.34 0.68 0 0 Z " fill="#F9BF06" transform="translate(218,760)"/>
<path d="M0 0 C1.74627478 2.61941217 2.38722388 4.03824877 3 7 C1.02 8.32 -0.96 9.64 -3 11 C-3.66 10.01 -4.32 9.02 -5 8 C-3.68 7.67 -2.36 7.34 -1 7 C-0.67 4.69 -0.34 2.38 0 0 Z " fill="#F4EDF7" transform="translate(645,693)"/>
<path d="M0 0 C2 2 2 2 2.125 5.125 C2.08375 6.07375 2.0425 7.0225 2 8 C0.68 7.67 -0.64 7.34 -2 7 C-2.33 7.66 -2.66 8.32 -3 9 C-2.5020163 5.26512223 -2.12508244 3.18762365 0 0 Z " fill="#6B43A4" transform="translate(348,376)"/>
<path d="M0 0 C2.97 0.495 2.97 0.495 6 1 C6 2.98 6 4.96 6 7 C3 5.1875 3 5.1875 0 3 C0 2.01 0 1.02 0 0 Z " fill="#FAF8E4" transform="translate(822,315)"/>
<path d="M0 0 C0.66 0.99 1.32 1.98 2 3 C0.95125002 5.62187494 0.35068687 6.79371361 -2.125 8.25 C-2.74375 8.4975 -3.3625 8.745 -4 9 C-4.66 7.68 -5.32 6.36 -6 5 C-4.02 3.35 -2.04 1.7 0 0 Z M-2 3 C-2.99 4.485 -2.99 4.485 -4 6 C-2.68 5.67 -1.36 5.34 0 5 C0 4.34 0 3.68 0 3 C-0.66 3 -1.32 3 -2 3 Z " fill="#F8C415" transform="translate(251,294)"/>
<path d="M0 0 C-0.33 0.99 -0.66 1.98 -1 3 C-1.99 3.33 -2.98 3.66 -4 4 C-4.33 4.66 -4.66 5.32 -5 6 C-5.99 5.67 -6.98 5.34 -8 5 C-8.33 4.01 -8.66 3.02 -9 2 C-3.375 0 -3.375 0 0 0 Z " fill="#EBE4F1" transform="translate(643,760)"/>
<path d="M0 0 C0 2.64779693 -0.17195931 4.51587793 -1 7 C-1.99 7.495 -1.99 7.495 -3 8 C-3 8.99 -3 9.98 -3 11 C-3.66 11 -4.32 11 -5 11 C-4.50769231 4.6 -4.50769231 4.6 -1.9375 1.5625 C-0.9784375 0.7890625 -0.9784375 0.7890625 0 0 Z " fill="#6C42A5" transform="translate(603,357)"/>
<path d="M0 0 C2.46800047 1.15173355 4.04783565 2.04783565 6 4 C6 4.99 6 5.98 6 7 C6.99 7.33 7.98 7.66 9 8 C8.67 8.66 8.34 9.32 8 10 C7.34 10 6.68 10 6 10 C4.4921875 7.8125 4.4921875 7.8125 2.875 5 C2.33617187 4.071875 1.79734375 3.14375 1.2421875 2.1875 C0.83226562 1.465625 0.42234375 0.74375 0 0 Z " fill="#F4EEF6" transform="translate(151,776)"/>
<path d="M0 0 C3.96 0 7.92 0 12 0 C11.67 0.99 11.34 1.98 11 3 C7.37 2.34 3.74 1.68 0 1 C0 0.67 0 0.34 0 0 Z " fill="#7046A8" transform="translate(620,115)"/>
<path d="M0 0 C0 1.65 0 3.3 0 5 C-0.99 5.33 -1.98 5.66 -3 6 C-3.99 4.35 -4.98 2.7 -6 1 C-4 0 -4 0 0 0 Z " fill="#F8F5F5" transform="translate(174,800)"/>
<path d="M0 0 C0.66 0.33 1.32 0.66 2 1 C0.8125 3.4375 0.8125 3.4375 -1 6 C-3.6875 6.8125 -3.6875 6.8125 -6 7 C-4.60667426 3.63279613 -3.0210714 2.0140476 0 0 Z " fill="#F4EDF5" transform="translate(652,789)"/>
<path d="M0 0 C0.66 1.32 1.32 2.64 2 4 C1.34 4 0.68 4 0 4 C0.33 5.32 0.66 6.64 1 8 C-0.98 8.66 -2.96 9.32 -5 10 C-3.35 6.7 -1.7 3.4 0 0 Z " fill="#F3EEF5" transform="translate(676,758)"/>
<path d="M0 0 C-0.99 0.33 -1.98 0.66 -3 1 C-3 1.66 -3 2.32 -3 3 C-5.31 3.33 -7.62 3.66 -10 4 C-10.33 3.34 -10.66 2.68 -11 2 C-7.17679443 0.57741188 -4.08718695 -0.24042276 0 0 Z " fill="#7247A9" transform="translate(368,578)"/>
<path d="M0 0 C0.99 0.66 1.98 1.32 3 2 C1.68 3.65 0.36 5.3 -1 7 C-1.99 5.68 -2.98 4.36 -4 3 C-2 1 -2 1 0 0 Z " fill="#FAF8E8" transform="translate(851,336)"/>
<path d="M0 0 C2.99324263 1.0975223 3.84610901 1.67682892 5.25 4.625 C5.4975 5.40875 5.745 6.1925 6 7 C5.01 7 4.02 7 3 7 C0.8125 4 0.8125 4 -1 1 C-0.67 0.67 -0.34 0.34 0 0 Z " fill="#F4F0F6" transform="translate(882,293)"/>
<path d="M0 0 C0.5534764 2.07553648 1 3.84365964 1 6 C-0.65 6.66 -2.3 7.32 -4 8 C-4 6.33333333 -4 4.66666667 -4 3 C-2 1.3125 -2 1.3125 0 0 Z " fill="#F6F2F7" transform="translate(271,184)"/>
<path d="M0 0 C2.64 0.99 5.28 1.98 8 3 C8 3.66 8 4.32 8 5 C7.38125 4.79375 6.7625 4.5875 6.125 4.375 C5.42375 4.25125 4.7225 4.1275 4 4 C3.34 4.66 2.68 5.32 2 6 C0 2.25 0 2.25 0 0 Z " fill="#F6F2F7" transform="translate(691,138)"/>
<path d="M0 0 C0.99 0.33 1.98 0.66 3 1 C-0.465 3.97 -0.465 3.97 -4 7 C-4 5.68 -4 4.36 -4 3 C-2.1875 1.1875 -2.1875 1.1875 0 0 Z " fill="#FBF6E5" transform="translate(199,337)"/>
<path d="M0 0 C0.99 0 1.98 0 3 0 C2.8125 1.8125 2.8125 1.8125 2 4 C-0.5625 5.75 -0.5625 5.75 -3 7 C-3 6.01 -3 5.02 -3 4 C-2.34 3.67 -1.68 3.34 -1 3 C-0.67 2.01 -0.34 1.02 0 0 Z " fill="#F6F3F5" transform="translate(860,820)"/>
<path d="M0 0 C1.65 0.33 3.3 0.66 5 1 C4.3125 2.9375 4.3125 2.9375 3 5 C0.375 5.75 0.375 5.75 -2 6 C-1.34 4.02 -0.68 2.04 0 0 Z " fill="#6A3DA7" transform="translate(601,809)"/>
<path d="M0 0 C0.598125 0.165 1.19625 0.33 1.8125 0.5 C4.11344336 1.1114124 4.11344336 1.1114124 7 1 C5.37660195 2.70884005 3.70680947 4.37446717 2 6 C1.34 6 0.68 6 0 6 C0 5.34 0 4.68 0 4 C0.66 4 1.32 4 2 4 C1.34 2.68 0.68 1.36 0 0 Z " fill="#6C42A6" transform="translate(650,784)"/>
<path d="M0 0 C0.99 0 1.98 0 3 0 C3 0.66 3 1.32 3 2 C4.65 1.67 6.3 1.34 8 1 C7.67 1.99 7.34 2.98 7 4 C6.34 4 5.68 4 5 4 C4.67 4.66 4.34 5.32 4 6 C2.68 4.02 1.36 2.04 0 0 Z " fill="#6A42A2" transform="translate(383,771)"/>
<path d="M0 0 C0.66 0.66 1.32 1.32 2 2 C1.01 4.97 0.02 7.94 -1 11 C-1.33 10.34 -1.66 9.68 -2 9 C-2.66 9 -3.32 9 -4 9 C-3.71125 8.443125 -3.4225 7.88625 -3.125 7.3125 C-1.9586747 4.91505355 -0.9660119 2.48403061 0 0 Z " fill="#6B3EA4" transform="translate(413,666)"/>
<path d="M0 0 C2.31 0 4.62 0 7 0 C7 1.32 7 2.64 7 4 C4 4 4 4 1.8125 2 C1.214375 1.34 0.61625 0.68 0 0 Z " fill="#F0ECF2" transform="translate(695,368)"/>
<path d="M0 0 C0.66 1.32 1.32 2.64 2 4 C0.71937515 5.7074998 -0.61767557 7.37373596 -2 9 C-2.66 9 -3.32 9 -4 9 C-2.80100302 5.9168649 -1.52299523 2.93720508 0 0 Z " fill="#6E42A6" transform="translate(380,330)"/>
<path d="M0 0 C3.36720387 1.39332574 4.9859524 2.9789286 7 6 C4 6 4 6 1.3125 3.5 C0.549375 2.675 -0.21375 1.85 -1 1 C-0.67 0.67 -0.34 0.34 0 0 Z " fill="#F5EDF5" transform="translate(248,883)"/>
<path d="M0 0 C2.6855594 2.6855594 3.06049974 5.37621328 4 9 C3.01 9 2.02 9 1 9 C-1.125 2.25 -1.125 2.25 0 0 Z " fill="#ECE5F1" transform="translate(625,645)"/>
<path d="M0 0 C1.98 1.65 3.96 3.3 6 5 C5.67 5.66 5.34 6.32 5 7 C4.34 7 3.68 7 3 7 C2.67 6.01 2.34 5.02 2 4 C-0.01508358 3.26676204 -0.01508358 3.26676204 -2 3 C-2 2.34 -2 1.68 -2 1 C-1.34 0.67 -0.68 0.34 0 0 Z " fill="#6B41A1" transform="translate(435,342)"/>
<path d="M0 0 C0.99 0.99 1.98 1.98 3 3 C2.67 3.66 2.34 4.32 2 5 C-0.31 5 -2.62 5 -5 5 C-3.35 3.35 -1.7 1.7 0 0 Z " fill="#F9C313" transform="translate(261,285)"/>
<path d="M0 0 C0.33 0.66 0.66 1.32 1 2 C1.99 2.33 2.98 2.66 4 3 C-0.43076923 5.09230769 -0.43076923 5.09230769 -3.3125 4.625 C-3.869375 4.41875 -4.42625 4.2125 -5 4 C-3.35 2.68 -1.7 1.36 0 0 Z " fill="#F7C41B" transform="translate(279,269)"/>
<path d="M0 0 C2.64 0 5.28 0 8 0 C6.3125 2.0625 6.3125 2.0625 4 4 C1.25 3.75 1.25 3.75 -1 3 C-0.67 2.01 -0.34 1.02 0 0 Z " fill="#F9F7F4" transform="translate(612,115)"/>
<path d="M0 0 C1.98 0.66 3.96 1.32 6 2 C5.01 3.485 5.01 3.485 4 5 C2.68 4.67 1.36 4.34 0 4 C0 2.68 0 1.36 0 0 Z " fill="#6C40A3" transform="translate(328,937)"/>
<path d="M0 0 C2.03833424 1.2739589 4.03852126 2.61061923 6 4 C6 4.66 6 5.32 6 6 C3.03824877 5.38722388 1.61941217 4.74627478 -1 3 C-0.67 2.01 -0.34 1.02 0 0 Z " fill="#FBF7E5" transform="translate(282,821)"/>
<path d="M0 0 C-0.99 0.495 -0.99 0.495 -2 1 C-1.67 2.32 -1.34 3.64 -1 5 C-5.875 2.25 -5.875 2.25 -7 0 C-4.3333581 -1.33332095 -2.83319697 -0.67102033 0 0 Z " fill="#FAC419" transform="translate(256,791)"/>
<path d="M0 0 C1.98 0.99 1.98 0.99 4 2 C3.67 3.65 3.34 5.3 3 7 C2.01 6.34 1.02 5.68 0 5 C-0.1875 2.375 -0.1875 2.375 0 0 Z " fill="#F5F4F4" transform="translate(410,776)"/>
<path d="M0 0 C0.66 1.32 1.32 2.64 2 4 C1.01 4.33 0.02 4.66 -1 5 C-1 5.66 -1 6.32 -1 7 C-1.99 7.33 -2.98 7.66 -4 8 C-2.87548273 5.0280615 -1.77706209 2.66559313 0 0 Z " fill="#6A40A2" transform="translate(900,769)"/>
<path d="M0 0 C1.67542976 0.28604898 3.34385343 0.61781233 5 1 C5 1.66 5 2.32 5 3 C3.02 3.99 3.02 3.99 1 5 C0.34 3.68 -0.32 2.36 -1 1 C-0.67 0.67 -0.34 0.34 0 0 Z " fill="#FAC20B" transform="translate(816,769)"/>
<path d="M0 0 C0.33 0.66 0.66 1.32 1 2 C0.01 3.485 0.01 3.485 -1 5 C-1.99 4.67 -2.98 4.34 -4 4 C-5.66621616 3.96125079 -7.33394172 3.9549714 -9 4 C-6.01353231 2.00902154 -3.40312738 1.05875074 0 0 Z " fill="#6D46A3" transform="translate(638,705)"/>
<path d="M0 0 C2.25 -0.3125 2.25 -0.3125 5 0 C7.3125 2.5 7.3125 2.5 9 5 C8.01 5.33 7.02 5.66 6 6 C2.8125 3.625 2.8125 3.625 0 1 C0 0.67 0 0.34 0 0 Z " fill="#FBF6E4" transform="translate(759,261)"/>
<path d="M0 0 C0.66 0.33 1.32 0.66 2 1 C1.1875 2.9375 1.1875 2.9375 0 5 C-0.99 5.33 -1.98 5.66 -3 6 C-3.66 5.34 -4.32 4.68 -5 4 C-3.35 2.68 -1.7 1.36 0 0 Z " fill="#F6EEF7" transform="translate(263,190)"/>
<path d="M0 0 C0.99 0.33 1.98 0.66 3 1 C3 2.32 3 3.64 3 5 C1.35 5 -0.3 5 -2 5 C-1.125 1.125 -1.125 1.125 0 0 Z " fill="#6B3FA5" transform="translate(852,834)"/>
<path d="M0 0 C2.4375 0.75 2.4375 0.75 5 2 C5.8125 4.125 5.8125 4.125 6 6 C3.37812506 4.95125002 2.20628639 4.35068687 0.75 1.875 C0.5025 1.25625 0.255 0.6375 0 0 Z " fill="#F8C310" transform="translate(282,819)"/>
<path d="M0 0 C2.125 0.375 2.125 0.375 4 1 C2.35 2.65 0.7 4.3 -1 6 C-1.625 4.125 -1.625 4.125 -2 2 C-1.34 1.34 -0.68 0.68 0 0 Z " fill="#6D42A3" transform="translate(660,777)"/>
<path d="M0 0 C1.32 1.32 2.64 2.64 4 4 C3.01 4.99 2.02 5.98 1 7 C0.34 5.02 -0.32 3.04 -1 1 C-0.67 0.67 -0.34 0.34 0 0 Z " fill="#6C43A6" transform="translate(377,757)"/>
<path d="M0 0 C0.33 1.32 0.66 2.64 1 4 C1.66 4 2.32 4 3 4 C2.34 5.32 1.68 6.64 1 8 C0.01 7.01 -0.98 6.02 -2 5 C-1.34 3.35 -0.68 1.7 0 0 Z " fill="#6B40A3" transform="translate(699,697)"/>
<path d="M0 0 C0.99 0.33 1.98 0.66 3 1 C4.1875 4.5625 4.1875 4.5625 5 8 C4.01 8 3.02 8 2 8 C1.34 5.36 0.68 2.72 0 0 Z " fill="#6B42A1" transform="translate(105,683)"/>
<path d="M0 0 C0.66 0.33 1.32 0.66 2 1 C1.01 3.97 0.02 6.94 -1 10 C-1.33 10 -1.66 10 -2 10 C-2.1953125 3.9453125 -2.1953125 3.9453125 -2 2 C-1.34 1.34 -0.68 0.68 0 0 Z " fill="#F8F3FA" transform="translate(940,677)"/>
<path d="M0 0 C3.16115776 1.36983503 3.9927092 1.9890638 6 5 C4.02 5.99 4.02 5.99 2 7 C2 5.35 2 3.7 2 2 C1.34 2 0.68 2 0 2 C0 1.34 0 0.68 0 0 Z " fill="#F8C517" transform="translate(850,343)"/>
<path d="M0 0 C0.99 0.33 1.98 0.66 3 1 C0.525 4.465 0.525 4.465 -2 8 C-2.33 7.01 -2.66 6.02 -3 5 C-1.5625 2.3125 -1.5625 2.3125 0 0 Z " fill="#F7F3F6" transform="translate(614,340)"/>
<path d="M0 0 C2 0.25 2 0.25 4 1 C4.33 1.99 4.66 2.98 5 4 C3.68 4 2.36 4 1 4 C0.34 3.01 -0.32 2.02 -1 1 C-0.67 0.67 -0.34 0.34 0 0 Z " fill="#FAF7E0" transform="translate(768,267)"/>
<path d="M0 0 C0.66 0.66 1.32 1.32 2 2 C-0.31 3.65 -2.62 5.3 -5 7 C-3.75023244 3.34683329 -3.32901247 2.21934164 0 0 Z " fill="#F2EBF2" transform="translate(803,879)"/>
<path d="M0 0 C0.99 0 1.98 0 3 0 C2.67 1.65 2.34 3.3 2 5 C0.68 4.34 -0.64 3.68 -2 3 C-1.34 2.01 -0.68 1.02 0 0 Z " fill="#6C3EA5" transform="translate(621,789)"/>
<path d="M0 0 C1.98 0.66 3.96 1.32 6 2 C6.33 3.65 6.66 5.3 7 7 C5.83040013 6.02433888 4.66438823 5.044375 3.5 4.0625 C2.8503125 3.51722656 2.200625 2.97195313 1.53125 2.41015625 C1.0259375 1.94480469 0.520625 1.47945312 0 1 C0 0.67 0 0.34 0 0 Z " fill="#FBFAF0" transform="translate(209,759)"/>
<path d="M0 0 C1 3 1 3 1 6 C0.01 6.66 -0.98 7.32 -2 8 C-2.66 7.67 -3.32 7.34 -4 7 C-2.68 4.69 -1.36 2.38 0 0 Z " fill="#6E47A2" transform="translate(908,755)"/>
<path d="M0 0 C1.125 1.75 1.125 1.75 2 4 C1.125 6.25 1.125 6.25 0 8 C-0.99 7.67 -1.98 7.34 -3 7 C-2.01 4.69 -1.02 2.38 0 0 Z " fill="#6E44A5" transform="translate(924,722)"/>
<path d="M0 0 C2 0.25 2 0.25 4 1 C4.33 1.99 4.66 2.98 5 4 C3.68 4 2.36 4 1 4 C0.34 3.01 -0.32 2.02 -1 1 C-0.67 0.67 -0.34 0.34 0 0 Z " fill="#F9F5DB" transform="translate(840,331)"/>
<path d="M0 0 C0.99 0.33 1.98 0.66 3 1 C2.01 2.98 1.02 4.96 0 7 C-0.66 6.67 -1.32 6.34 -2 6 C-1.49396008 3.83125748 -1.00016187 2.00032373 0 0 Z " fill="#693EA3" transform="translate(139,326)"/>
<path d="M0 0 C1.32 1.32 2.64 2.64 4 4 C3.38125 4.28875 2.7625 4.5775 2.125 4.875 C-0.13325765 5.93720042 -0.13325765 5.93720042 -2 8 C-1.47731534 5.23723823 -0.89130413 2.6739124 0 0 Z " fill="#F4F1F3" transform="translate(874,280)"/>
</svg>
