<?xml version="1.0" encoding="UTF-8"?>
<svg version="1.1" xmlns="http://www.w3.org/2000/svg" width="400" height="195">
<path d="M0 0 C0.88171875 -0.00773437 1.7634375 -0.01546875 2.671875 -0.0234375 C8.86377375 -0.00527944 14.60347653 0.82687817 20.625 2.25 C20.48316304 4.00032844 20.33636571 5.75025534 20.1875 7.5 C20.10628906 8.47453125 20.02507812 9.4490625 19.94140625 10.453125 C19.67345144 12.82171321 19.22916008 14.95376168 18.625 17.25 C17.94920898 17.26981934 17.27341797 17.28963867 16.57714844 17.31005859 C13.50937956 17.40543238 10.44228002 17.51506165 7.375 17.625 C5.77978516 17.67140625 5.77978516 17.67140625 4.15234375 17.71875 C3.12753906 17.75742188 2.10273438 17.79609375 1.046875 17.8359375 C0.10424805 17.8673584 -0.83837891 17.8987793 -1.80957031 17.93115234 C-4.45728076 18.26022637 -6.13241893 18.82437505 -8.375 20.25 C-12.55282728 28.31530363 -12.51665871 37.40420061 -12.375 46.25 C-11.116875 46.29125 -9.85875 46.3325 -8.5625 46.375 C-7.50095703 46.40980469 -7.50095703 46.40980469 -6.41796875 46.4453125 C-4.06140281 46.38254462 -4.06140281 46.38254462 -1.375 44.25 C-0.69095374 42.43456085 -0.69095374 42.43456085 -0.42578125 40.3359375 C-0.31145752 39.65063965 -0.19713379 38.9653418 -0.0793457 38.25927734 C0.04996338 37.38996582 0.17927246 36.5206543 0.3125 35.625 C0.745625 32.86125 1.17875 30.0975 1.625 27.25 C7.895 27.25 14.165 27.25 20.625 27.25 C19.72265625 39.49609375 19.72265625 39.49609375 19.10522461 44.98266602 C19.01526718 45.78438736 18.92530975 46.5861087 18.83262634 47.41212463 C18.76410965 48.0186235 18.69559296 48.62512238 18.625 49.25 C18.82687424 48.72239578 19.02874847 48.19479156 19.23674011 47.65119934 C21.34634331 42.14555742 23.47453984 36.64736761 25.61352539 31.15307617 C26.4086544 29.10348585 27.19907373 27.0520618 27.98461914 24.9987793 C29.11663066 22.04237477 30.26559044 19.09304689 31.41796875 16.14453125 C31.76401657 15.22976517 32.11006439 14.31499908 32.46659851 13.37251282 C34.43800704 8.38265964 36.21129381 4.56902279 40.625 1.25 C43.1328125 0.60302734 43.1328125 0.60302734 45.75 0.5859375 C46.70390625 0.57949219 47.6578125 0.57304688 48.640625 0.56640625 C49.62546875 0.58574219 50.6103125 0.60507813 51.625 0.625 C53.10226563 0.59599609 53.10226563 0.59599609 54.609375 0.56640625 C56.04023438 0.57607422 56.04023438 0.57607422 57.5 0.5859375 C58.36367187 0.59157715 59.22734375 0.5972168 60.1171875 0.60302734 C63.93186872 1.58714974 65.27732282 3.08952194 67.625 6.25 C68.70647435 9.64186033 69.1766444 13.05932426 69.64453125 16.58203125 C69.79282883 17.57377853 69.9411264 18.56552582 70.09391785 19.58732605 C70.56127639 22.74322798 70.99972203 25.9023729 71.4375 29.0625 C71.7500525 31.20796004 72.06448462 33.35314715 72.38085938 35.49804688 C73.15071299 40.74573093 73.89689675 45.99636955 74.625 51.25 C74.75551758 50.14076172 74.88603516 49.03152344 75.02050781 47.88867188 C75.51246032 43.74190659 76.02411269 39.59776316 76.54150391 35.45410156 C76.76198834 33.6663376 76.97724928 31.87792087 77.18701172 30.08886719 C77.49088404 27.50523241 77.81397488 24.92459205 78.140625 22.34375 C78.22934875 21.55383667 78.31807251 20.76392334 78.40948486 19.95007324 C79.23148973 13.68890114 80.9750483 7.73934857 85.6875 3.3125 C89.61846952 1.15680704 92.85964062 1.12132242 97.26953125 1.1171875 C98.58630859 1.11589844 99.90308594 1.11460938 101.25976562 1.11328125 C101.94594971 1.11537598 102.63213379 1.1174707 103.33911133 1.11962891 C105.41950872 1.12495395 107.49968766 1.1196908 109.58007812 1.11328125 C110.91406297 1.11394258 112.24804768 1.11522486 113.58203125 1.1171875 C115.39151245 1.11887939 115.39151245 1.11887939 117.23754883 1.12060547 C120.625 1.25 120.625 1.25 124.00268555 1.82080078 C124.86804932 1.96243652 125.73341309 2.10407227 126.625 2.25 C126.955 1.92 127.285 1.59 127.625 1.25 C129.1137186 1.16330568 130.606445 1.14296506 132.09765625 1.15234375 C132.99677734 1.15556641 133.89589844 1.15878906 134.82226562 1.16210938 C135.76779297 1.17048828 136.71332031 1.17886719 137.6875 1.1875 C139.1115918 1.19426758 139.1115918 1.19426758 140.56445312 1.20117188 C142.91803065 1.2129989 145.27148477 1.22947975 147.625 1.25 C146.15172638 16.60671087 144.42611695 31.9284985 142.625 47.25 C150.215 47.25 157.805 47.25 165.625 47.25 C166.78712484 40.85831337 167.89540419 34.69355912 168.66015625 28.28125 C168.78553017 27.24985901 168.78553017 27.24985901 168.91343689 26.19763184 C169.17454597 24.04877981 169.43155265 21.8994725 169.6875 19.75 C170.02898242 16.88497203 170.37459624 14.02048541 170.72265625 11.15625 C170.87226807 9.90134766 171.02187988 8.64644531 171.17602539 7.35351562 C171.625 4.25 171.625 4.25 172.625 1.25 C179.225 1.25 185.825 1.25 192.625 1.25 C191.9317242 12.89225225 190.56120318 24.37652241 189.0625 35.9375 C188.71110449 38.66557196 188.36083853 41.39377778 188.01271057 44.12226868 C187.79776078 45.80530292 187.58083729 47.48808659 187.36167908 49.170578 C186.97069933 52.21934208 186.625 55.17265019 186.625 58.25 C188.80437219 54.83291249 190.95766127 51.40086649 193.08862305 47.95336914 C193.81609833 46.78433365 194.5504022 45.61951754 195.29174805 44.45922852 C196.35976097 42.78502669 197.40090211 41.09377939 198.44140625 39.40234375 C199.07506104 38.39163818 199.70871582 37.38093262 200.36157227 36.33959961 C202.52868457 31.04012014 200.83030511 26.32038925 198.99609375 21.11328125 C198.68349609 20.20642578 198.37089844 19.29957031 198.04882812 18.36523438 C197.72333984 17.44033203 197.39785156 16.51542969 197.0625 15.5625 C196.40973444 13.70639754 195.76237117 11.84838407 195.12109375 9.98828125 C194.83419678 9.17399658 194.5472998 8.35971191 194.25170898 7.52075195 C193.625 5.25 193.625 5.25 193.625 1.25 C199.895 1.25 206.165 1.25 212.625 1.25 C214.5092542 6.27467787 216.26807833 11.13743171 217.8125 16.25 C218.15667969 17.384375 218.50085938 18.51875 218.85546875 19.6875 C219.10941406 20.533125 219.36335937 21.37875 219.625 22.25 C219.95298584 21.64937744 220.28097168 21.04875488 220.61889648 20.42993164 C222.09830906 17.72313901 223.58036786 15.01780439 225.0625 12.3125 C225.57876953 11.36697266 226.09503906 10.42144531 226.62695312 9.44726562 C227.12001953 8.54814453 227.61308594 7.64902344 228.12109375 6.72265625 C228.57669678 5.89000244 229.0322998 5.05734863 229.50170898 4.19946289 C230.625 2.25 230.625 2.25 231.625 1.25 C233.1137186 1.16330568 234.606445 1.14296506 236.09765625 1.15234375 C236.99677734 1.15556641 237.89589844 1.15878906 238.82226562 1.16210938 C239.76779297 1.17048828 240.71332031 1.17886719 241.6875 1.1875 C243.1115918 1.19426758 243.1115918 1.19426758 244.56445312 1.20117188 C246.91803065 1.2129989 249.27148477 1.22947975 251.625 1.25 C250.34893359 5.54681341 248.72254963 8.96116767 246.26171875 12.69921875 C245.62298828 13.71306641 244.98425781 14.72691406 244.32617188 15.77148438 C242.98686496 17.87722299 241.62482963 19.96868149 240.24023438 22.04492188 C236.65635947 27.65662281 236.65635947 27.65662281 235.74780273 34.07788086 C236.50386665 36.92306208 237.49208119 39.53406537 238.625 42.25 C239.24491827 44.13546946 239.85301606 46.02486651 240.44921875 47.91796875 C241.0671873 49.75886455 241.68827758 51.59871539 242.3125 53.4375 C242.63283203 54.38947266 242.95316406 55.34144531 243.28320312 56.32226562 C244.06100523 58.63245396 244.84259413 60.94136679 245.625 63.25 C239.025 63.25 232.425 63.25 225.625 63.25 C223.66639512 58.02705366 221.92496753 53.0843663 220.4375 47.75 C220.09332031 46.5228125 219.74914062 45.295625 219.39453125 44.03125 C219.14058594 43.1134375 218.88664063 42.195625 218.625 41.25 C218.02171875 42.33539063 217.4184375 43.42078125 216.796875 44.5390625 C215.98971223 45.98444699 215.18241332 47.42975546 214.375 48.875 C213.97925781 49.58785156 213.58351563 50.30070312 213.17578125 51.03515625 C212.58603516 52.08896484 212.58603516 52.08896484 211.984375 53.1640625 C211.62827148 53.8029541 211.27216797 54.4418457 210.90527344 55.10009766 C210.27153809 56.16429932 210.27153809 56.16429932 209.625 57.25 C209.089888 58.26898376 208.554776 59.28796753 208.00344849 60.33782959 C205.625 63.25 205.625 63.25 202.29910278 63.9984436 C200.96290955 64.02790275 199.62573779 64.02436897 198.28955078 63.99462891 C197.55733307 64.00193024 196.82511536 64.00923157 196.07070923 64.01675415 C193.65296263 64.03295091 191.23790474 64.00576356 188.8203125 63.9765625 C187.13646446 63.97552483 185.45261396 63.97656205 183.76876831 63.97958374 C180.2395205 63.97940435 176.71118695 63.95856516 173.18212891 63.92236328 C168.66704367 63.87705599 164.153298 63.87588769 159.63804817 63.88939857 C156.16002584 63.89609611 152.68230663 63.88278362 149.20434189 63.86314011 C147.54024723 63.85546135 145.87611876 63.8531292 144.21200943 63.8563118 C141.88043814 63.85705714 139.55055483 63.83170688 137.21923828 63.79931641 C136.53643799 63.80427124 135.8536377 63.80922607 135.15014648 63.81433105 C130.2353399 63.70584647 127.4283535 62.29535073 123.625 59.25 C118.16812061 51.25872943 122.50072345 36.68146262 123.625 27.625 C123.81825182 26.03261795 124.01096446 24.44017036 124.203125 22.84765625 C124.67087176 18.9809874 125.14590175 15.11527806 125.625 11.25 C125.295 12.9 124.965 14.55 124.625 16.25 C123.96902832 16.27505615 123.31305664 16.3001123 122.63720703 16.32592773 C119.67459817 16.4417326 116.71231969 16.56452886 113.75 16.6875 C112.71746094 16.72681641 111.68492187 16.76613281 110.62109375 16.80664062 C109.63496094 16.84853516 108.64882812 16.89042969 107.6328125 16.93359375 C106.26600342 16.98858032 106.26600342 16.98858032 104.87158203 17.04467773 C102.59016519 17.11577065 102.59016519 17.11577065 100.625 18.25 C99.965 20.89 99.305 23.53 98.625 26.25 C105.555 26.25 112.485 26.25 119.625 26.25 C119.295 30.87 118.965 35.49 118.625 40.25 C111.365 40.25 104.105 40.25 96.625 40.25 C96.33767206 45.20013144 96.33767206 45.20013144 96.05688477 50.15063477 C96.01877686 50.78283936 95.98066895 51.41504395 95.94140625 52.06640625 C95.88641968 53.01688843 95.88641968 53.01688843 95.83032227 53.98657227 C95.54901179 57.08767735 95.06536322 60.16745745 94.625 63.25 C81.755 63.25 68.885 63.25 55.625 63.25 C55.295 58.96 54.965 54.67 54.625 50.25 C49.345 50.25 44.065 50.25 38.625 50.25 C38.33625 51.6525 38.0475 53.055 37.75 54.5 C37.05095236 57.89537424 36.2244614 60.05107719 34.625 63.25 C23.735 63.25 12.845 63.25 1.625 63.25 C0.965 61.6 0.305 59.95 -0.375 58.25 C-1.096875 58.86875 -1.81875 59.4875 -2.5625 60.125 C-9.01172612 64.99774862 -15.52830337 65.02083418 -23.375 64.25 C-28.45084488 62.11280216 -30.35130352 59.14839379 -32.61328125 54.34765625 C-37.13152488 41.9051084 -34.51828647 24.50274132 -29.1875 12.5625 C-25.76909966 6.55471258 -21.3049298 3.17490757 -14.76171875 1.109375 C-9.84813269 -0.02115437 -5.02137661 -0.04366414 0 0 Z M50.625 16.25 C49.62119084 19.04035046 48.6218055 21.83214855 47.625 24.625 C47.33882813 25.4190625 47.05265625 26.213125 46.7578125 27.03125 C46.48710937 27.79179687 46.21640625 28.55234375 45.9375 29.3359375 C45.68613281 30.0376709 45.43476563 30.7394043 45.17578125 31.46240234 C44.5268491 33.25680111 44.5268491 33.25680111 44.625 35.25 C47.595 35.25 50.565 35.25 53.625 35.25 C52.965 28.98 52.305 22.71 51.625 16.25 C51.295 16.25 50.965 16.25 50.625 16.25 Z " fill="#FFFEFE" transform="translate(143.375,121.75)"/>
<path d="M0 0 C0.7314473 -0.00807175 1.46289459 -0.01614349 2.21650696 -0.02445984 C3.7656519 -0.03828238 5.31482706 -0.04901272 6.86401367 -0.05688477 C8.43799856 -0.06837607 10.01194535 -0.08878279 11.58569336 -0.1184082 C27.82682052 -0.42400704 27.82682052 -0.42400704 34.55078125 4.23828125 C37.41902751 7.03298273 38.42865954 8.45975536 39.05078125 12.42578125 C39.29828125 13.81796875 39.29828125 13.81796875 39.55078125 15.23828125 C41.46842299 16.61456065 41.46842299 16.61456065 43.55078125 17.23828125 C45.84363311 19.53113311 44.73615182 25.03411918 44.73828125 28.11328125 C44.75052734 29.03753906 44.76277344 29.96179688 44.77539062 30.9140625 C44.77732422 31.80222656 44.77925781 32.69039062 44.78125 33.60546875 C44.78535889 34.42128418 44.78946777 35.23709961 44.79370117 36.07763672 C44.55078125 38.23828125 44.55078125 38.23828125 42.55078125 41.23828125 C41.56078125 41.23828125 40.57078125 41.23828125 39.55078125 41.23828125 C39.55078125 46.18828125 39.55078125 51.13828125 39.55078125 56.23828125 C41.53078125 56.73328125 41.53078125 56.73328125 43.55078125 57.23828125 C45.37511314 60.88694503 44.82122851 65.15834248 44.86328125 69.17578125 C44.90678711 70.55540039 44.90678711 70.55540039 44.95117188 71.96289062 C44.95955078 72.84654297 44.96792969 73.73019531 44.9765625 74.640625 C44.99114502 75.45007568 45.00572754 76.25952637 45.02075195 77.09350586 C44.38262931 80.00566557 42.96979717 80.6297045 40.55078125 82.23828125 C39.79166757 84.29276289 39.79166757 84.29276289 39.55078125 86.55078125 C38.68962682 90.97855029 37.66031147 93.817798 34.55078125 97.23828125 C22.91219143 104.61738717 8.25472677 104.93046994 -5.01171875 102.17578125 C-11.56128271 100.27487617 -16.53069308 96.6582618 -19.88671875 90.67578125 C-20.44921875 88.23828125 -20.44921875 88.23828125 -20.88671875 85.05078125 C-21.07234375 84.12265625 -21.25796875 83.19453125 -21.44921875 82.23828125 C-22.43921875 81.57828125 -23.42921875 80.91828125 -24.44921875 80.23828125 C-24.78979492 77.89990234 -24.78979492 77.89990234 -24.7421875 75.01171875 C-24.73251953 73.98046875 -24.72285156 72.94921875 -24.71289062 71.88671875 C-24.68775391 70.80648437 -24.66261719 69.72625 -24.63671875 68.61328125 C-24.62318359 67.5253125 -24.60964844 66.43734375 -24.59570312 65.31640625 C-24.56026629 62.62320716 -24.51086206 59.93098751 -24.44921875 57.23828125 C-22.46921875 56.74328125 -22.46921875 56.74328125 -20.44921875 56.23828125 C-20.44921875 51.28828125 -20.44921875 46.33828125 -20.44921875 41.23828125 C-21.76921875 40.90828125 -23.08921875 40.57828125 -24.44921875 40.23828125 C-24.44921875 32.64828125 -24.44921875 25.05828125 -24.44921875 17.23828125 C-23.12921875 16.57828125 -21.80921875 15.91828125 -20.44921875 15.23828125 C-20.05329892 13.55562197 -19.6585189 11.87267271 -19.2734375 10.1875 C-17.60322526 6.23756678 -13.88919764 3.64967239 -10.44921875 1.23828125 C-6.91677887 0.06080129 -3.67912336 0.03865218 0 0 Z M-8.44921875 7.23828125 C-7.1304315 11.19464301 -5.67566763 13.57616482 -2.44921875 16.23828125 C1.46865392 17.07830541 5.42769029 16.88705111 9.42578125 16.86328125 C11.04033203 16.91162109 11.04033203 16.91162109 12.6875 16.9609375 C19.63134997 16.97519508 19.63134997 16.97519508 25.37109375 13.44921875 C27.86506419 10.56885025 27.86506419 10.56885025 27.18701172 8.03759766 C26.97705566 7.44382324 26.76709961 6.85004883 26.55078125 6.23828125 C15.27106184 2.95690833 2.42531112 2.49303185 -8.44921875 7.23828125 Z M-9.38671875 68.62890625 C-10.32990525 70.94526133 -11.09925091 73.11150414 -11.63671875 75.55078125 C-11.90484375 76.76765625 -12.17296875 77.98453125 -12.44921875 79.23828125 C-6.00248731 83.53610221 1.87983122 82.45759565 9.36328125 82.48828125 C11.23209961 82.51921875 11.23209961 82.51921875 13.13867188 82.55078125 C20.01090839 82.57994724 25.31822518 82.20988891 31.55078125 79.23828125 C31.09632161 77.82036717 30.63703181 76.40400079 30.17578125 74.98828125 C29.92054688 74.199375 29.6653125 73.41046875 29.40234375 72.59765625 C28.59826945 70.36985406 27.6270482 68.34418986 26.55078125 66.23828125 C21.76368657 66.11469671 16.97751944 66.02395354 12.18920898 65.96362305 C10.56046375 65.93847557 8.9318314 65.90435247 7.3034668 65.86108398 C4.96244491 65.80043575 2.62291394 65.77207649 0.28125 65.75 C-0.44697464 65.72419357 -1.17519928 65.69838715 -1.92549133 65.67179871 C-5.5921034 65.66976379 -7.01870399 65.70708159 -9.38671875 68.62890625 Z M-12.44921875 92.23828125 C-9.36921929 95.9105883 -7.20095855 96.8063049 -2.44921875 97.23828125 C-3.12456392 94.19982888 -3.12456392 94.19982888 -5.19921875 93.05078125 C-7.74882449 92.13009029 -9.75844956 92.08879407 -12.44921875 92.23828125 Z M21.55078125 95.23828125 C21.55078125 95.89828125 21.55078125 96.55828125 21.55078125 97.23828125 C26.30252105 96.8063049 28.47078179 95.9105883 31.55078125 92.23828125 C27.30855023 91.87466145 24.9691004 92.69895845 21.55078125 95.23828125 Z " fill="#FFFFFF" transform="translate(190.44921875,9.76171875)"/>
<path d="M0 0 C0.88171875 -0.00773437 1.7634375 -0.01546875 2.671875 -0.0234375 C8.86377375 -0.00527944 14.60347653 0.82687817 20.625 2.25 C20.48316304 4.00032844 20.33636571 5.75025534 20.1875 7.5 C20.10628906 8.47453125 20.02507812 9.4490625 19.94140625 10.453125 C19.67345144 12.82171321 19.22916008 14.95376168 18.625 17.25 C17.94920898 17.26981934 17.27341797 17.28963867 16.57714844 17.31005859 C13.50937956 17.40543238 10.44228002 17.51506165 7.375 17.625 C5.77978516 17.67140625 5.77978516 17.67140625 4.15234375 17.71875 C3.12753906 17.75742188 2.10273438 17.79609375 1.046875 17.8359375 C0.10424805 17.8673584 -0.83837891 17.8987793 -1.80957031 17.93115234 C-4.45728076 18.26022637 -6.13241893 18.82437505 -8.375 20.25 C-12.55282728 28.31530363 -12.51665871 37.40420061 -12.375 46.25 C-11.116875 46.29125 -9.85875 46.3325 -8.5625 46.375 C-7.50095703 46.40980469 -7.50095703 46.40980469 -6.41796875 46.4453125 C-4.06140281 46.38254462 -4.06140281 46.38254462 -1.375 44.25 C-0.69095374 42.43456085 -0.69095374 42.43456085 -0.42578125 40.3359375 C-0.31145752 39.65063965 -0.19713379 38.9653418 -0.0793457 38.25927734 C0.04996338 37.38996582 0.17927246 36.5206543 0.3125 35.625 C0.745625 32.86125 1.17875 30.0975 1.625 27.25 C7.895 27.25 14.165 27.25 20.625 27.25 C19.72265625 39.49609375 19.72265625 39.49609375 19.10522461 44.98266602 C19.01526718 45.78438736 18.92530975 46.5861087 18.83262634 47.41212463 C18.76410965 48.0186235 18.69559296 48.62512238 18.625 49.25 C18.82687424 48.72239578 19.02874847 48.19479156 19.23674011 47.65119934 C21.34634331 42.14555742 23.47453984 36.64736761 25.61352539 31.15307617 C26.4086544 29.10348585 27.19907373 27.0520618 27.98461914 24.9987793 C29.11663066 22.04237477 30.26559044 19.09304689 31.41796875 16.14453125 C31.76401657 15.22976517 32.11006439 14.31499908 32.46659851 13.37251282 C34.43800704 8.38265964 36.21129381 4.56902279 40.625 1.25 C43.1328125 0.60302734 43.1328125 0.60302734 45.75 0.5859375 C46.70390625 0.57949219 47.6578125 0.57304688 48.640625 0.56640625 C49.62546875 0.58574219 50.6103125 0.60507813 51.625 0.625 C53.10226563 0.59599609 53.10226563 0.59599609 54.609375 0.56640625 C56.04023438 0.57607422 56.04023438 0.57607422 57.5 0.5859375 C58.36367187 0.59157715 59.22734375 0.5972168 60.1171875 0.60302734 C63.91431849 1.58262208 65.27819797 3.11753486 67.625 6.25 C68.70192447 9.50057793 69.17646483 12.77450112 69.64453125 16.16015625 C69.79282883 17.12344345 69.9411264 18.08673065 70.09391785 19.07920837 C70.40332552 21.11604705 70.70277954 23.15441941 70.99291992 25.1940918 C71.43301113 28.28101381 71.9040777 31.36191426 72.38085938 34.44335938 C73.84363386 44.12831116 75.05295026 53.44070866 74.625 63.25 C68.355 63.25 62.085 63.25 55.625 63.25 C55.295 58.96 54.965 54.67 54.625 50.25 C49.345 50.25 44.065 50.25 38.625 50.25 C38.33625 51.6525 38.0475 53.055 37.75 54.5 C37.05095236 57.89537424 36.2244614 60.05107719 34.625 63.25 C23.735 63.25 12.845 63.25 1.625 63.25 C0.965 61.6 0.305 59.95 -0.375 58.25 C-1.096875 58.86875 -1.81875 59.4875 -2.5625 60.125 C-9.01172612 64.99774862 -15.52830337 65.02083418 -23.375 64.25 C-28.45084488 62.11280216 -30.35130352 59.14839379 -32.61328125 54.34765625 C-37.13152488 41.9051084 -34.51828647 24.50274132 -29.1875 12.5625 C-25.76909966 6.55471258 -21.3049298 3.17490757 -14.76171875 1.109375 C-9.84813269 -0.02115437 -5.02137661 -0.04366414 0 0 Z M50.625 16.25 C49.62119084 19.04035046 48.6218055 21.83214855 47.625 24.625 C47.33882813 25.4190625 47.05265625 26.213125 46.7578125 27.03125 C46.48710937 27.79179687 46.21640625 28.55234375 45.9375 29.3359375 C45.68613281 30.0376709 45.43476563 30.7394043 45.17578125 31.46240234 C44.5268491 33.25680111 44.5268491 33.25680111 44.625 35.25 C47.595 35.25 50.565 35.25 53.625 35.25 C52.965 28.98 52.305 22.71 51.625 16.25 C51.295 16.25 50.965 16.25 50.625 16.25 Z " fill="#FFCD00" transform="translate(143.375,121.75)"/>
<path d="M0 0 C1.04994141 -0.01611328 2.09988281 -0.03222656 3.18164062 -0.04882812 C4.19291016 -0.04947266 5.20417969 -0.05011719 6.24609375 -0.05078125 C7.16962646 -0.05376221 8.09315918 -0.05674316 9.04467773 -0.05981445 C12.120969 0.39508172 13.3054959 1.18820816 15.5625 3.3125 C16.38519287 5.73435974 16.38519287 5.73435974 16.84277344 8.63842773 C17.1126004 10.27043373 17.1126004 10.27043373 17.38787842 11.93540955 C17.56409729 13.11043533 17.74031616 14.28546112 17.921875 15.49609375 C18.11597961 16.70314468 18.31008423 17.91019562 18.5100708 19.15382385 C19.12689065 23.01687428 19.71953199 26.88322438 20.3125 30.75 C20.72636833 33.35245193 21.14171506 35.95466922 21.55859375 38.55664062 C22.31423156 43.32217358 23.0686546 48.08782102 23.79980469 52.85717773 C23.9476239 53.81631577 24.09544312 54.7754538 24.2477417 55.76365662 C24.5625 58.3125 24.5625 58.3125 24.5625 62.3125 C17.9625 62.3125 11.3625 62.3125 4.5625 62.3125 C3.41866359 57.73715436 3.49334949 54.01473451 3.5625 49.3125 C-1.7175 49.3125 -6.9975 49.3125 -12.4375 49.3125 C-12.911875 50.900625 -13.38625 52.48875 -13.875 54.125 C-14.69470605 56.86923329 -15.53172494 59.59517481 -16.4375 62.3125 C-23.3675 62.3125 -30.2975 62.3125 -37.4375 62.3125 C-36.65825031 58.41625153 -35.79113532 55.36734327 -34.35205078 51.7277832 C-33.70600388 50.08632072 -33.70600388 50.08632072 -33.04690552 48.41169739 C-32.58025482 47.24072006 -32.11360413 46.06974274 -31.6328125 44.86328125 C-31.15302948 43.65431686 -30.67324646 42.44535248 -30.17892456 41.19975281 C-29.16487952 38.64745868 -28.14722062 36.09663889 -27.12744141 33.54663086 C-25.82120722 30.27849693 -24.52776465 27.00546192 -23.23741341 23.73103046 C-22.00266611 20.60506449 -20.75439958 17.48454441 -19.5078125 14.36328125 C-19.04521027 13.18623123 -18.58260803 12.00918121 -18.10598755 10.79646301 C-17.66898529 9.71161118 -17.23198303 8.62675934 -16.78173828 7.5090332 C-16.40058868 6.55148636 -16.01943909 5.59393951 -15.6267395 4.6073761 C-12.46424902 -1.49528346 -5.92863119 -0.01813037 0 0 Z M-1.4375 15.3125 C-2.27607688 17.91508324 -3.10853344 20.51935647 -3.9375 23.125 C-4.17597656 23.86298828 -4.41445312 24.60097656 -4.66015625 25.36132812 C-5.63690136 28.44505196 -6.4375 31.05745809 -6.4375 34.3125 C-3.7975 34.3125 -1.1575 34.3125 1.5625 34.3125 C1.2325 28.0425 0.9025 21.7725 0.5625 15.3125 C-0.0975 15.3125 -0.7575 15.3125 -1.4375 15.3125 Z " fill="#FFCD00" transform="translate(85.4375,122.6875)"/>
<path d="M0 0 C6.6 0 13.2 0 20 0 C21.32 14.85 22.64 29.7 24 45 C28.62 30.15 33.24 15.3 38 0 C45.26 0 52.52 0 60 0 C55.76657649 12.5970163 51.15286912 25.02238925 46.32424927 37.40155029 C45.65074415 39.13129623 44.98086956 40.86246025 44.31466675 42.59503174 C43.36233643 45.06765463 42.39598927 47.53434596 41.42578125 50 C41.14048553 50.74720306 40.85518982 51.49440613 40.56124878 52.26425171 C38.97408382 56.24641388 37.57920249 59.41295772 34 62 C31.48217773 62.50170898 31.48217773 62.50170898 28.68359375 62.49609375 C27.67232422 62.49673828 26.66105469 62.49738281 25.61914062 62.49804688 C24.56919922 62.47806641 23.51925781 62.45808594 22.4375 62.4375 C21.38369141 62.44458984 20.32988281 62.45167969 19.24414062 62.45898438 C11.64762331 62.39596285 11.64762331 62.39596285 9.27099609 60.94287109 C7.35428075 58.01294011 6.99245613 54.87832964 6.48046875 51.48046875 C6.35834518 50.73113571 6.23622162 49.98180267 6.11039734 49.20976257 C5.72480371 46.80862879 5.35963344 44.40515061 5 42 C4.88271545 41.22545471 4.76543091 40.45090942 4.64459229 39.65289307 C3.94422005 34.99488517 3.27982277 30.33259925 2.63745117 25.66625977 C2.30729137 23.27477164 1.96928539 20.88447149 1.63085938 18.49414062 C1.41620059 16.95058558 1.20199062 15.40696803 0.98828125 13.86328125 C0.88832352 13.16012283 0.78836578 12.45696442 0.68537903 11.73249817 C0.1413367 7.72878658 0 4.08187452 0 0 Z " fill="#FFCD00" transform="translate(5,123)"/>
<path d="M0 0 C3.94149313 1.97074656 6.48042555 4.00545499 9.66719055 6.96113586 C11.92956002 9.02022841 11.92956002 9.02022841 14.34416199 10.59928894 C18.19074485 13.39261306 20.60777347 15.54598684 21.87002563 20.22525024 C22.23987249 24.18041114 22.33346337 28.08365108 22.30078125 32.05078125 C22.31449324 33.51517393 22.33041782 34.97954739 22.34843445 36.44389343 C22.37514296 39.50498098 22.36807375 42.56371773 22.33813477 45.62475586 C22.3037141 49.52089107 22.36419188 53.40884658 22.45188618 57.30390644 C22.50734025 60.32700383 22.50602742 63.34818485 22.48897362 66.37166405 C22.48851799 67.80568083 22.50631999 69.23983892 22.54384804 70.67336464 C22.68413078 76.91122008 22.70155116 82.47072786 18.37362671 87.27426147 C15.44420421 90.12336729 12.27085649 92.55610395 9 95 C7.615781 96.21877539 6.23880204 97.44592048 4.875 98.6875 C2 101 2 101 0 101 C0 67.67 0 34.34 0 0 Z " fill="#FFCD00" transform="translate(244,11)"/>
<path d="M0 0 C0 33.66 0 67.32 0 102 C-2.64 100.02 -5.28 98.04 -8 96 C-9.17884766 95.33121826 -10.35769531 94.66243652 -11.57226562 93.97338867 C-15.77807284 91.34254268 -18.81600932 88.51242692 -21 84 C-23.15354555 74.51618393 -22.79831941 64.63268971 -22.58496094 54.96362305 C-22.4994213 51.08085862 -22.5216898 47.20759974 -22.57700348 43.3245821 C-22.60915057 40.30989004 -22.58755019 37.29738405 -22.54985046 34.28282738 C-22.53759111 32.85290456 -22.54073627 31.42275465 -22.56037903 29.9929142 C-22.66374086 18.94807676 -22.66374086 18.94807676 -18.62915039 14.22396851 C-15.8491191 11.94274568 -12.99902024 9.97941944 -10 8 C-8.26666841 6.5077204 -6.5539753 4.99068342 -4.875 3.4375 C-1.10916179 0 -1.10916179 0 0 0 Z " fill="#FFCD00" transform="translate(156,11)"/>
</svg>
